<svg width="750" height="750" viewBox="0 0 750 750" fill="none" xmlns="http://www.w3.org/2000/svg">
<path fill-rule="evenodd" clip-rule="evenodd" d="M517.283 94.1302C399.853 74.8653 411.826 267.707 255.577 241.313C95.7599 214.316 47.9937 404.763 95.7599 509.958C147.35 623.576 477.694 684.654 595.877 600.899C728.891 506.632 737.614 130.277 517.283 94.1302Z" fill="#DE3B3B"/>
<path fill-rule="evenodd" clip-rule="evenodd" d="M256.486 301.158C256.486 301.158 269.97 330.558 281.681 344.187C298.299 363.528 322.03 379.595 330.942 394.679C352.117 430.521 342.725 448.053 342.725 448.053C342.725 448.053 331.538 409.415 315.504 390.544C303.267 376.141 279.23 360.167 271.196 348.338C256.723 327.031 249.246 306.618 249.246 306.618L256.486 301.158Z" fill="white"/>
<path d="M422.957 614.082C367.671 616.664 312.424 620.089 257.243 624.356C250.166 625.055 244.931 625.159 245.21 625.91C240.235 625.595 231.242 622.888 226.014 625.055C229.952 625.968 237.397 629.449 237.839 633.467C185.765 636.471 133.401 634.444 81.7148 627.425C132.322 630.875 183.084 632.058 233.796 630.972C227.261 626.586 218.857 625.093 211.211 626.96C221.066 622.195 232.488 620.742 243.223 622.888C235.032 613.725 229.603 602.124 227.817 589.965C235.999 595.56 242.543 603.522 246.448 612.633C246.075 595.507 258.193 578.868 274.607 573.968C264.125 587.318 258.584 604.461 259.27 621.42C311.674 616.943 364.193 613.812 416.757 612.031C414.162 609.973 412.398 606.897 411.932 603.619C414.501 601.425 418.298 600.78 421.448 602.001C423.76 583.692 436.497 567.066 453.573 560.066C444.062 570.808 437.455 584.096 434.631 598.163C437.564 596.386 441.279 595.955 444.541 597.014C443.611 600.981 441.284 604.605 438.064 607.102C503.149 592.226 571.471 617.569 637.584 608.273C604.21 619.067 568.149 610.699 533.261 607.069C482.191 602.001 433.141 612.031 422.957 614.082Z" fill="white"/>
<path d="M560.67 218.196C561.242 212.749 565.932 208.666 570.742 206.045C579.441 201.305 589.684 199.456 599.491 200.854C603.932 201.487 607.318 197.255 610.491 194.085C618.727 185.855 631.312 182.85 642.799 184.751C654.285 186.653 664.693 192.998 673.076 201.077C681.458 209.156 688.002 218.932 694.058 228.876C695.328 230.962 698.274 231.017 700.714 230.898C705.977 230.64 711.516 230.785 716.114 233.36C720.712 235.934 723.944 241.649 722.083 246.58C721.212 248.889 719.361 250.729 717.248 252.003C713.031 254.545 707.919 254.982 703.011 255.357C670.276 257.857 637.541 260.356 604.806 262.856C595.849 263.54 586.752 264.216 577.956 262.394C569.16 260.571 560.548 255.884 556.045 248.111C551.542 240.339 552.295 229.267 559.203 223.525C560.663 222.311 560.472 220.084 560.67 218.196Z" fill="white"/>
<path d="M451.101 268.351C458.246 276.558 495.125 273.684 496.321 288.699C492.096 289.858 487.871 291.017 483.646 292.176C476.777 294.06 469.829 295.975 463.615 299.457C460.699 301.09 457.232 303.11 454.266 301.569C442.797 295.609 429.461 293.757 416.595 294.987C403.729 296.217 391.284 300.409 379.608 305.952C373.512 308.846 366.643 312.188 360.334 309.796C337.3 301.062 311.021 301.215 288.09 310.216C284.024 311.812 279.492 310.041 275.491 308.29C271.163 306.396 266.835 304.503 262.508 302.609C268.089 296.225 291.949 287.345 296.814 281.166C297.669 280.081 329.529 257.987 364.466 267.969C366.031 267.235 420.367 257.987 451.101 268.351Z" fill="white"/>
<path fill-rule="evenodd" clip-rule="evenodd" d="M308.296 372.688C288.037 353.434 264.649 333.943 259.194 306.531C269.206 332.247 291.44 350.759 310.941 370.285C330.441 389.811 348.912 414.167 347.707 441.736C379.591 434.776 412.632 433.145 445.047 436.93C448.37 421.966 458.042 409.368 465.631 396.05C484.445 363.034 490.806 324.599 496.851 287.083C498.379 277.598 486.766 271.976 477.457 269.604C468.158 267.234 458.86 264.865 449.562 262.496C432.087 258.043 413.982 253.559 396.208 256.604C384.189 258.662 372.319 264.139 360.299 262.089C341.165 258.824 320.865 262.958 304.53 273.444C296.319 278.715 289.021 285.549 280.057 289.406C261.192 297.523 244.575 310.795 232.49 327.4C226.176 294.739 236.814 261.314 249.251 230.46C263.155 195.97 280.607 161.074 310.521 138.982C354.379 106.592 411.56 112.897 457.183 142.749C502.806 172.601 530.683 221.828 539.692 275.6C540.739 281.855 541.482 288.624 538.538 294.24C535.593 299.856 534.482 303.106 529.682 298.963C525.589 295.431 521.234 291.768 515.924 290.751C510.615 289.734 504.173 292.493 503.144 297.8C495.605 336.667 487.688 376.52 466.742 410.117C461.287 418.866 454.936 427.22 451.467 436.929C448.812 444.358 447.957 452.289 447.12 460.134C445.378 476.48 443.635 492.826 441.892 509.171C441.157 516.061 440.133 523.564 435.114 528.341C430.321 532.903 423.189 533.723 416.598 534.309C395.194 536.21 373.791 538.111 352.387 540.012C348.56 540.351 344.219 540.525 341.424 537.889C339.27 535.857 338.673 532.711 338.249 529.781C335.243 508.985 335.244 487.757 338.252 466.962C342.568 437.125 329.216 406.6 308.185 385C297.225 373.744 284.3 364.543 273.358 353.269C262.416 341.995 253.258 327.826 252.601 312.129C260.047 332.76 273.767 351.079 291.471 364.026C317.928 383.374 336.778 412.851 343.242 444.984C348.323 417.501 328.554 391.943 308.296 372.688Z" fill="white"/>
<path fill-rule="evenodd" clip-rule="evenodd" d="M253.551 435.488C250.341 433.728 249.159 429.78 248.314 426.218C244.173 408.738 241.145 390.995 239.256 373.132C239.136 371.996 239.081 370.685 239.907 369.896C241.678 371.984 241.99 374.9 242.262 377.624C244.215 397.207 248 416.607 253.551 435.488Z" fill="#00160A"/>
<path fill-rule="evenodd" clip-rule="evenodd" d="M508.137 375.945C511.047 366.216 513.192 356.258 514.546 346.193C514.729 344.831 515.242 343.116 516.613 343.011C517.413 343.71 517.336 344.956 517.185 346.008C515.896 354.982 514.055 363.877 511.677 372.625C511.195 374.401 509.844 376.631 508.137 375.945Z" fill="#00160A"/>
<path fill-rule="evenodd" clip-rule="evenodd" d="M433.991 609.839C435.579 605.529 438.486 601.716 442.222 599.043C438.252 599.286 434.391 601.015 431.566 603.814C433.123 591.611 437.026 579.711 442.999 568.957C431.949 578.028 424.817 591.718 423.716 605.971C421.083 604.437 417.8 604.067 414.891 604.976C417.58 608.011 420.268 611.047 422.957 614.082C367.671 616.664 312.424 620.089 257.243 624.356C254.374 609.106 258.105 592.73 267.295 580.228C255.167 588.781 247.68 603.546 247.946 618.384C242.539 611.171 239.845 600.867 231.724 596.745C233.161 603.814 234.82 605.403 244.359 623.663C244.749 624.41 244.931 625.159 245.21 625.91C240.235 625.595 231.242 622.888 226.014 625.055C229.952 625.968 237.397 629.449 237.839 633.467C185.765 636.471 133.401 634.444 81.7148 627.425C132.322 630.875 183.084 632.058 233.796 630.972C227.261 626.586 218.857 625.093 211.211 626.96C221.066 622.195 232.488 620.742 243.223 622.888C235.032 613.725 229.603 602.124 227.817 589.965C235.999 595.56 242.543 603.522 246.448 612.633C246.075 595.507 258.193 578.868 274.607 573.968C264.125 587.318 258.584 604.461 259.27 621.42C311.674 616.943 364.193 613.812 416.757 612.031C414.162 609.973 412.398 606.897 411.932 603.619C414.501 601.425 418.298 600.78 421.448 602.001C423.76 583.692 436.497 567.066 453.573 560.066C444.062 570.808 437.455 584.096 434.631 598.163C437.564 596.386 441.279 595.955 444.541 597.014C443.611 600.981 441.284 604.605 438.064 607.102C503.149 592.226 571.471 617.569 637.584 608.273C604.21 619.067 568.149 610.699 533.261 607.069C500.241 603.633 466.769 604.567 433.991 609.839Z" fill="#00160A"/>
<path fill-rule="evenodd" clip-rule="evenodd" d="M463.295 371.863C464.093 373.037 463.843 374.606 463.521 375.988C461.589 384.287 458.182 392.24 453.508 399.364C452.208 397.744 453.404 395.396 454.498 393.63C457.41 388.93 459.55 383.752 460.806 378.368C461.339 376.083 461.768 373.645 463.295 371.863Z" fill="#00160A"/>
<path fill-rule="evenodd" clip-rule="evenodd" d="M450.838 386.93C449.636 385.893 450.174 383.962 450.75 382.482C452.601 377.729 453.845 372.739 454.443 367.673C454.641 365.994 454.956 364.017 456.47 363.265C457.184 363.909 457.076 365.038 456.911 365.985C455.656 373.181 454.35 380.525 450.838 386.93Z" fill="#00160A"/>
<path fill-rule="evenodd" clip-rule="evenodd" d="M350.772 413.751C351.124 413.436 351.673 413.76 351.999 414.102C353.464 415.635 354.336 417.72 354.401 419.84C352.442 418.79 351.007 416.813 350.613 414.626C350.558 414.321 350.541 413.958 350.772 413.751Z" fill="#00160A"/>
<path fill-rule="evenodd" clip-rule="evenodd" d="M504.944 349.488C504.422 358.728 502.312 367.877 498.734 376.412C498.642 376.633 498.542 376.861 498.361 377.017C497.83 377.475 496.934 376.982 496.744 376.307C496.553 375.632 496.824 374.923 497.082 374.271C499.606 367.883 501.28 361.16 502.047 354.335C502.275 352.305 502.915 349.726 504.944 349.488Z" fill="#00160A"/>
<path fill-rule="evenodd" clip-rule="evenodd" d="M347.359 397.817C343.921 393.169 341.156 388.024 339.177 382.592C338.922 381.894 339.077 380.715 339.795 380.909C340.065 380.982 340.226 381.252 340.358 381.498C343.343 387.064 346.329 392.631 349.314 398.197C349.162 399.034 347.865 398.501 347.359 397.817Z" fill="#00160A"/>
<path fill-rule="evenodd" clip-rule="evenodd" d="M249.47 301.225C247.891 300.406 247.827 298.204 248.017 296.435C251.55 263.464 267.602 231.988 292.215 209.767C292.781 213.95 289.552 217.573 286.689 220.674C266.296 242.766 253.076 271.377 249.47 301.225Z" fill="#00160A"/>
<path fill-rule="evenodd" clip-rule="evenodd" d="M456.381 301.193C456.831 290.367 455.021 278.452 451.101 268.351C458.246 276.559 458.542 288.5 458.466 299.382C469.864 292.603 483.061 288.879 496.321 288.7C492.096 289.859 487.871 291.017 483.646 292.176C476.777 294.06 469.829 295.976 463.615 299.457C460.699 301.091 457.232 303.111 454.266 301.569C442.797 295.609 429.461 293.757 416.595 294.987C403.729 296.218 391.284 301.41 379.608 306.953C373.512 309.847 366.643 313.189 360.334 310.796C337.3 302.063 311.021 301.216 288.09 310.216C284.024 311.812 279.492 310.041 275.491 308.29C271.163 306.397 266.835 304.503 262.508 302.61C267.539 303.665 280.031 308.159 280.031 308.159C280.031 308.159 283.63 308.594 284.762 307.212C285.895 305.83 286.253 303.993 286.661 302.253C288.457 294.598 291.949 287.345 296.814 281.167C297.669 280.081 299.499 279.068 300.18 280.27C293.448 288.073 288.959 297.79 287.381 307.974C311.918 298.719 339.917 299.012 364.255 308.776C366.581 295.311 366.652 281.459 364.466 267.97C366.031 267.236 367.18 269.568 367.334 271.29C368.456 283.835 368.255 296.498 366.734 309.001C380.81 302.201 395.408 296.057 410.842 293.578C426.276 291.098 442.751 293.539 456.381 301.193Z" fill="#00160A"/>
<path fill-rule="evenodd" clip-rule="evenodd" d="M277.478 274.312C284.836 253.253 296.306 233.641 311.052 216.903C312.133 215.675 313.418 214.372 315.053 214.316C316.688 214.261 318.222 216.397 317.069 217.557C300.104 234.613 286.871 255.363 278.562 277.94C277.067 277.979 276.984 275.724 277.478 274.312Z" fill="#00160A"/>
<path fill-rule="evenodd" clip-rule="evenodd" d="M254.231 369.139C254.446 369.401 254.471 369.766 254.488 370.104C255.194 384.129 258.758 397.833 262.304 411.421C262.455 412.001 261.609 412.42 261.077 412.143C260.545 411.866 260.313 411.242 260.127 410.672C255.992 397.942 253.352 384.727 252.28 371.386C252.227 370.72 252.189 370.003 252.543 369.437C252.898 368.872 253.808 368.623 254.231 369.139Z" fill="#00160A"/>
<path fill-rule="evenodd" clip-rule="evenodd" d="M365.02 255.253C363.543 255.315 363.061 253.307 363.083 251.83C363.306 236.383 363.53 220.937 363.754 205.491C363.779 203.785 364.24 201.564 365.936 201.376C367.443 203.141 367.411 205.708 367.299 208.027C366.539 223.769 365.779 239.511 365.02 255.253Z" fill="#00160A"/>
<path fill-rule="evenodd" clip-rule="evenodd" d="M507.247 278.893C510.519 273.579 510.299 266.892 509.747 260.675C508.781 249.786 507.124 238.959 504.789 228.279C504.565 227.255 504.431 225.965 505.293 225.37C506.005 224.877 507.046 225.217 507.604 225.88C508.163 226.542 508.358 227.428 508.529 228.277C511.208 241.553 512.428 255.124 512.16 268.665C512.06 273.701 511.235 279.608 506.815 282.022C505.965 281.248 506.644 279.872 507.247 278.893Z" fill="#00160A"/>
<path fill-rule="evenodd" clip-rule="evenodd" d="M455.402 243.106C456.514 248.044 456.042 253.325 454.074 257.988C452.723 256.536 453.103 254.258 453.337 252.289C454.246 244.637 451.566 237.017 448.272 230.052C444.977 223.086 440.996 216.36 439.015 208.914C438.717 207.794 438.763 206.171 439.905 205.973C440.87 205.806 441.528 206.897 441.887 207.808C445.59 217.188 449.292 226.568 452.995 235.948C453.92 238.292 454.849 240.648 455.402 243.106Z" fill="#00160A"/>
<path fill-rule="evenodd" clip-rule="evenodd" d="M555.67 215.196C556.242 209.749 560.932 205.666 565.742 203.045C574.441 198.305 584.684 196.456 594.491 197.854C598.932 198.487 602.318 194.255 605.491 191.085C613.727 182.855 626.312 179.85 637.799 181.751C649.285 183.653 659.693 189.998 668.076 198.077C676.458 206.156 683.002 215.932 689.058 225.876C690.328 227.962 693.274 228.017 695.714 227.898C700.977 227.64 706.516 227.785 711.114 230.36C715.712 232.934 718.944 238.649 717.083 243.58C716.212 245.889 714.361 247.729 712.248 249.003C708.031 251.545 702.919 251.982 698.011 252.357C665.276 254.857 632.541 257.356 599.806 259.856C590.849 260.54 581.752 261.216 572.956 259.394C564.16 257.571 555.548 252.884 551.045 245.111C546.542 237.339 547.295 226.267 554.203 220.525C555.663 219.311 555.472 217.084 555.67 215.196ZM568.071 204.735C564.152 206.602 560.241 209.352 558.95 213.497C558.49 214.973 558.395 216.541 557.968 218.028C556.861 221.882 553.672 224.776 551.99 228.417C548.482 236.005 552.479 245.443 559.167 250.46C565.855 255.477 574.516 256.969 582.856 257.556C612.872 259.669 642.717 252.053 672.798 251.296C684.613 250.999 696.805 251.702 707.858 247.517C712.041 245.932 716.639 241.924 714.843 237.827C714.389 236.792 713.572 235.961 712.715 235.224C707.424 230.674 699.845 228.933 693.098 230.718C689.657 231.628 686.784 228.138 684.9 225.118C676.702 211.98 667.42 198.884 654.176 190.857C640.933 182.831 622.774 181.076 610.454 190.459C604.918 194.676 599.769 201.228 592.849 200.494C584.41 199.599 575.732 201.084 568.071 204.735Z" fill="#00160A"/>
<path fill-rule="evenodd" clip-rule="evenodd" d="M109.654 166.239C108.549 169.687 109.942 173.398 111.451 176.688C113.205 180.513 116.089 184.827 120.288 184.562C133.256 183.743 146.223 182.924 159.191 182.105C161.069 181.986 163.654 182.476 163.665 184.359C147.404 185.66 131.143 186.962 114.882 188.263C103.943 189.139 92.5058 190.176 83.2699 196.102C74.0339 202.027 68.0136 214.521 72.9956 224.298C74.8833 228.002 78.588 231.099 82.7439 230.975C93.9445 230.642 105.145 230.308 116.345 229.975C118.955 229.897 122.526 230.721 122.409 233.329C104.61 232.265 86.7049 232.969 69.0437 235.427C62.7029 236.309 56.1805 237.499 50.8631 241.064C45.5458 244.629 41.7251 251.175 43.214 257.401C44.2416 261.699 47.6079 265.15 51.5007 267.241C55.3935 269.331 59.8 270.237 64.1576 270.968C110.368 278.728 157.775 269.653 204.51 273.042C209.739 273.421 215.4 274.155 219.124 277.845C178.804 270.106 137.224 278.743 96.2137 276.802C87.0856 276.371 77.9913 275.414 68.9031 274.458C61.4644 273.675 53.6707 272.765 47.5341 268.488C44.5815 266.43 42.1065 263.587 40.8713 260.207C37.8115 251.833 43.2112 242.266 50.8199 237.619C58.4286 232.972 67.6615 232.052 76.5405 231.244C69.2837 226.279 67.1261 215.819 70.2658 207.606C73.4054 199.392 80.8731 193.404 89.0577 190.189C97.2423 186.975 106.16 186.199 114.943 185.785C112.353 182.392 109.724 178.93 108.276 174.915C106.828 170.899 106.721 166.17 109.032 162.58C110.638 160.084 113.215 158.395 115.786 156.911C140.381 142.72 170.112 141.072 198.499 141.776C206.212 141.967 214.177 142.367 221.114 145.745C231.876 150.986 238.417 163.104 238.482 175.073C238.547 187.043 232.756 198.592 224.243 207.008C222.876 205.114 224.585 202.595 226.083 200.803C233.018 192.501 236.958 181.433 235.482 170.717C234.007 160.002 226.655 149.979 216.406 146.52C212.123 145.075 207.551 144.77 203.037 144.54C173.683 143.044 142.92 144.581 117.212 158.826C114.047 160.58 110.757 162.794 109.654 166.239Z" fill="#00160A"/>
<path fill-rule="evenodd" clip-rule="evenodd" d="M308.296 372.688C288.037 353.434 264.649 333.943 259.194 306.532C269.206 332.247 291.44 350.759 310.941 370.285C330.441 389.811 348.912 414.167 347.707 441.737C379.591 434.776 412.632 433.145 445.047 436.93C448.37 421.966 458.042 409.368 465.631 396.05C484.445 363.034 490.806 324.599 496.851 287.083C498.379 277.598 486.766 271.976 477.457 269.604C468.158 267.234 458.86 264.865 449.562 262.496C432.087 258.043 413.982 253.559 396.208 256.604C384.189 258.662 372.319 264.139 360.299 262.089C341.165 258.825 320.865 262.958 304.53 273.444C296.319 278.716 289.097 285.879 280.057 289.406C260.486 297.041 249.246 306.289 232.49 327.4C226.176 294.739 236.814 261.314 249.251 230.461C263.155 195.97 280.607 161.074 310.521 138.982C354.379 106.593 418.56 109.897 464.183 139.749C509.806 169.601 537.683 221.828 546.692 275.6C547.739 281.855 548.482 288.624 545.538 294.24C542.593 299.857 534.482 303.106 529.682 298.963C525.589 295.431 521.234 291.768 515.924 290.751C510.615 289.734 504.173 292.493 503.144 297.8C495.605 336.667 487.688 376.521 466.742 410.117C461.287 418.866 454.936 427.22 451.467 436.929C448.812 444.358 447.957 452.289 447.12 460.134C445.378 476.48 443.635 492.826 441.892 509.172C441.157 516.062 440.133 523.564 435.114 528.342C430.321 532.903 423.189 533.723 416.598 534.309C395.195 536.21 373.791 538.111 352.387 540.012C348.56 540.352 344.219 540.525 341.424 537.889C339.27 535.857 338.673 532.711 338.249 529.781C335.243 508.985 335.244 487.757 338.252 466.962C342.568 437.126 329.216 406.6 308.185 385.001C297.225 373.744 284.3 364.543 273.358 353.269C262.416 341.996 253.258 327.826 252.601 312.13C260.047 332.76 273.767 351.079 291.471 364.026C317.928 383.374 336.778 412.852 343.242 444.984C348.323 417.501 328.554 391.943 308.296 372.688ZM353.734 258.297C362.342 259.137 371.356 261.277 379.39 258.073C401.023 249.445 426.118 249.901 447.423 259.31C456.516 263.326 466.752 263.547 476.543 265.261C486.334 266.974 496.671 270.881 501.656 279.481C507.255 289.138 523.706 286.469 530.082 295.631C532.726 299.431 539.229 297.983 541.733 294.089C544.236 290.195 543.898 285.183 543.339 280.588C538.784 243.185 525.086 206.512 501.447 177.17C477.808 147.828 443.897 126.251 406.692 120.285C369.488 114.32 329.344 124.865 301.808 150.585C285.141 166.152 273.581 186.347 263.424 206.767C245.733 242.33 231.251 281.156 234.109 320.773C245.982 306.406 258.881 291.331 276.689 285.83C280.941 284.516 285.601 283.672 288.828 280.607C305.937 264.362 330.253 256.003 353.734 258.297ZM372.762 503.423C372.696 512.974 374.127 522.534 376.986 531.648C377.231 532.426 377.532 533.263 378.224 533.695C378.897 534.114 379.754 534.034 380.541 533.94C390.112 532.795 399.683 531.651 409.254 530.506C409.605 530.464 409.997 530.4 410.207 530.115C410.425 529.82 410.358 529.411 410.282 529.052C408.559 520.955 406.836 512.859 405.113 504.763C405.016 504.307 404.906 503.826 404.585 503.489C404.19 503.075 403.576 502.978 403.009 502.906C393.607 501.716 384.11 501.273 374.639 501.582C374.084 501.601 373.464 501.651 373.1 502.07C372.788 502.429 372.765 502.947 372.762 503.423ZM403.137 469.674C402.822 469.244 402.225 469.158 401.694 469.111C392.045 468.257 382.307 468.397 372.686 469.528C372.129 469.593 371.538 469.676 371.107 470.035C370.4 470.623 370.395 471.686 370.449 472.604C370.77 478.055 371.091 483.505 371.413 488.955C371.491 490.286 372.009 492.042 373.341 491.976C382.777 491.502 392.253 491.848 401.63 493.008C402.92 493.168 403.417 491.387 403.415 490.087C403.404 483.665 403.393 477.242 403.382 470.819C403.382 470.422 403.372 469.995 403.137 469.674ZM343.318 506.703C342.59 507.034 341.845 507.404 341.351 508.034C340.566 509.035 340.599 510.432 340.669 511.703C340.917 516.164 341.164 520.624 341.411 525.085C341.536 527.343 341.668 529.637 342.434 531.765C343.199 533.892 344.701 535.867 346.821 536.654C348.567 537.303 350.5 537.085 352.349 536.857C355.848 536.428 359.347 535.998 362.845 535.568C364.282 535.392 365.77 535.198 367 534.434C363.72 524.474 361.541 514.152 360.514 503.716C360.442 502.985 359.46 502.814 358.727 502.86C353.415 503.195 348.165 504.504 343.318 506.703ZM437.462 494.758C438.499 488.356 439.535 481.953 440.571 475.55C440.662 474.989 440.738 474.362 440.408 473.899C440.074 473.429 439.443 473.301 438.874 473.209C431.288 471.991 423.684 470.891 416.064 469.911C415.493 469.837 414.798 469.815 414.469 470.288C414.272 470.57 414.278 470.941 414.293 471.285C414.568 477.96 414.844 484.635 415.119 491.31C415.144 491.92 415.202 492.601 415.658 493.006C415.98 493.292 416.43 493.372 416.855 493.441C423.251 494.474 429.648 495.507 436.045 496.54C436.882 496.675 437.327 495.596 437.462 494.758ZM370.966 456.987C370.829 457.725 370.782 458.669 371.438 459.031C371.753 459.205 372.137 459.175 372.495 459.141C382.525 458.177 392.556 457.214 402.587 456.25C403.104 456.201 403.65 456.14 404.067 455.83C404.635 455.408 404.809 454.647 404.944 453.952C405.761 449.722 406.579 445.491 407.396 441.261C407.513 440.659 407.584 439.925 407.106 439.542C406.772 439.275 406.299 439.297 405.873 439.333C396.257 440.138 386.642 440.943 377.026 441.748C376.241 441.813 375.421 441.89 374.756 442.314C373.632 443.031 373.292 444.49 373.048 445.801C372.354 449.53 371.66 453.258 370.966 456.987ZM416.158 443.073C415.782 446.74 415.406 450.408 415.031 454.076C414.969 454.68 414.915 455.327 415.21 455.858C415.644 456.643 416.646 456.871 417.53 457.02C425.579 458.376 433.627 459.731 441.676 461.087C442.01 461.143 442.365 461.197 442.676 461.064C443.269 460.809 443.401 460.042 443.445 459.398C443.765 454.665 443.837 449.915 443.66 445.174C443.629 444.357 443.586 443.519 443.254 442.772C442.245 440.506 439.243 440.13 436.763 440.08C430.953 439.961 425.143 439.843 419.333 439.725C418.731 439.713 418.099 439.707 417.566 439.987C416.52 440.535 416.278 441.898 416.158 443.073ZM501.841 287.065C497.688 292.479 496.548 299.547 495.494 306.289C490.157 340.392 483.239 375.284 464.474 404.255C458.046 414.18 450.034 423.979 449.124 435.769C452.665 423.496 462.468 414.207 469.197 403.349C474.135 395.383 477.43 386.522 480.447 377.649C487.732 356.23 493.596 334.329 497.989 312.136C499.569 304.157 501.126 295.764 506.264 289.458C504.52 289.441 502.809 288.515 501.841 287.065ZM357.845 493.247C358.403 493.102 359 492.932 359.363 492.484C359.752 492.003 359.769 491.332 359.768 490.714C359.761 484.828 359.754 478.943 359.747 473.058C359.746 472.634 359.733 472.174 359.465 471.846C359.08 471.375 358.366 471.392 357.762 471.458C353.092 471.969 348.467 472.888 343.956 474.202C343.427 474.356 342.873 474.532 342.497 474.935C342.066 475.398 341.955 476.067 341.868 476.694C340.992 483.048 340.642 489.475 340.823 495.887C340.837 496.41 340.914 497.03 341.378 497.27C341.699 497.437 342.088 497.349 342.438 497.258C347.573 495.921 352.709 494.584 357.845 493.247ZM433.062 524.952C436.464 520.863 436.493 515.029 436.353 509.713C436.326 508.678 435.109 508.165 434.103 507.917C428.729 506.592 423.269 505.613 417.77 504.989C417.288 504.934 416.76 504.893 416.359 505.164C415.747 505.579 415.753 506.467 415.832 507.203C416.577 514.067 418.003 520.857 420.08 527.441C420.322 528.206 420.639 529.047 421.363 529.391C421.753 529.576 422.202 529.582 422.634 529.57C426.551 529.457 430.556 527.964 433.062 524.952ZM350.885 445.788C349.549 446.172 348.186 446.623 347.134 447.532C346.136 448.394 345.501 449.601 345.007 450.825C343.436 454.711 343.079 458.964 342.74 463.142C342.714 463.461 342.697 463.813 342.892 464.067C343.184 464.448 343.763 464.397 344.235 464.309C348.305 463.546 352.376 462.783 356.447 462.019C357.606 461.802 358.889 461.507 359.547 460.528C359.994 459.862 360.049 459.017 360.091 458.216C360.34 453.407 360.589 448.597 360.838 443.788C357.474 444.182 354.141 444.851 350.885 445.788ZM373.738 466.381C382.628 465.419 391.609 465.3 400.521 466.028C401.531 466.111 402.642 466.178 403.461 465.58C404.743 464.642 404.57 462.711 404.263 461.152C404.183 460.745 404.091 460.315 403.806 460.014C403.352 459.533 402.595 459.553 401.937 459.609C393.04 460.355 384.143 461.101 375.246 461.847C374.019 461.95 372.709 462.085 371.756 462.865C370.803 463.646 370.494 465.319 371.476 466.062C372.099 466.534 372.961 466.465 373.738 466.381ZM441.472 465.674C440.402 464.581 438.793 464.261 437.288 463.993C430.63 462.81 423.972 461.627 417.314 460.444C416.446 460.29 415.378 460.209 414.856 460.92C414.628 461.23 414.564 461.627 414.508 462.008C414.224 463.902 414.458 466.54 416.357 466.79C423.925 467.787 431.493 468.784 439.061 469.781C439.811 469.88 440.618 469.97 441.288 469.618C442.642 468.908 442.541 466.767 441.472 465.674ZM364.771 503.236C364.32 504.475 364.546 505.845 364.781 507.142C366.215 515.074 367.774 522.985 369.558 530.846C369.798 531.905 370.065 533.008 370.768 533.835C371.472 534.662 372.756 535.104 373.674 534.523C375.053 533.65 374.543 531.561 373.951 530.04C370.888 522.187 370.018 513.663 369.596 505.244C369.521 503.766 369.236 501.962 367.847 501.452C366.61 500.997 365.222 501.997 364.771 503.236ZM435.699 504.699C437.311 504.084 436.196 501.334 437.349 500.05C430.656 498.381 423.833 497.236 416.961 496.629C415.341 496.486 414.589 498.929 415.554 500.239C416.519 501.548 418.284 501.921 419.887 502.198C421.332 502.448 422.777 502.698 424.222 502.948C427.614 503.535 431.006 504.121 434.399 504.708C434.831 504.783 435.289 504.855 435.699 504.699ZM375.315 498.682C383.621 498.195 391.974 498.508 400.221 499.614C401.868 499.835 404.154 499.641 404.374 497.994C404.603 496.289 402.305 495.54 400.587 495.455C392.242 495.04 383.879 494.981 375.528 495.28C374.049 495.333 372.021 496.083 372.412 497.511C372.711 498.605 374.182 498.749 375.315 498.682ZM407.205 470.681C406.816 471.494 406.805 472.431 406.802 473.332C406.784 478.42 406.766 483.507 406.747 488.594C406.743 489.722 406.748 490.893 407.222 491.917C407.696 492.941 408.783 493.774 409.894 493.578C411.737 493.252 412.078 490.783 411.976 488.914C411.68 483.502 411.385 478.089 411.089 472.677C411.017 471.346 410.669 469.673 409.364 469.401C408.481 469.217 407.595 469.867 407.205 470.681ZM412.881 505.881C412.512 504.816 411.659 503.835 410.543 503.681C409.427 503.527 408.195 504.529 408.41 505.635C409.718 512.372 411.026 519.109 412.334 525.845C412.64 527.423 413.063 529.178 414.424 530.033C415.785 530.888 418.151 529.742 417.642 528.217C415.576 522.033 413.494 515.74 413.274 509.224C413.236 508.098 413.251 506.945 412.881 505.881ZM367.353 491.509C367.96 490.424 367.912 489.106 367.848 487.864C367.622 483.53 367.396 479.197 367.17 474.864C367.1 473.518 366.983 472.054 366.072 471.06C365.162 470.066 363.165 470.058 362.727 471.333C362.611 471.672 362.622 472.039 362.635 472.397C362.842 478.195 363.048 483.992 363.255 489.79C363.291 490.795 363.4 491.946 364.215 492.535C365.223 493.263 366.746 492.594 367.353 491.509ZM364.236 444.087C363.085 445.679 363.033 447.787 363.026 449.751C363.016 452.458 363.006 455.164 362.996 457.871C362.99 459.322 363.522 461.303 364.966 461.162C366.095 461.052 366.547 459.671 366.735 458.552C367.579 453.527 368.423 448.502 369.267 443.477C368.083 441.91 365.388 442.496 364.236 444.087ZM356.313 500.541C357.502 500.435 358.827 500.333 359.63 499.45C360.433 498.567 359.931 496.684 358.749 496.846C355.099 497.346 351.449 497.846 347.8 498.346C345.907 498.606 343.897 498.916 342.455 500.169C341.013 501.422 340.537 503.969 342.012 505.182C346.351 502.589 351.279 500.99 356.313 500.541ZM343.009 467.861C341.918 468.9 341.722 470.989 343.012 471.767C347.191 470.372 351.518 469.425 355.897 468.947C356.976 468.829 358.121 468.716 358.986 468.06C359.85 467.404 360.231 465.986 359.449 465.234C358.832 464.64 357.851 464.727 357.004 464.854C353.73 465.345 350.455 465.836 347.18 466.327C345.69 466.55 344.099 466.821 343.009 467.861ZM411.274 439.895C410.889 440.306 410.772 440.893 410.671 441.448C409.902 445.678 409.133 449.908 408.364 454.138C408.225 454.903 408.139 455.827 408.736 456.325C409.345 456.833 410.339 456.521 410.819 455.889C411.3 455.257 411.405 454.426 411.494 453.637C411.971 449.397 412.447 445.156 412.924 440.916C412.967 440.535 412.998 440.109 412.76 439.808C412.411 439.366 411.66 439.484 411.274 439.895ZM409.837 495.919C408.237 495.724 406.685 497.768 407.683 499.034C408.381 499.92 409.199 500.824 410.301 501.065C411.403 501.306 412.772 500.504 412.666 499.381C412.515 497.776 411.437 496.115 409.837 495.919ZM410.47 463.446C411.009 462.15 411.138 460.077 409.744 459.915C409.2 459.851 408.683 460.186 408.31 460.588C406.573 462.453 407.47 466.014 409.883 466.834C410.658 465.941 410.93 464.64 410.579 463.512C410.196 462.277 409.973 464.64 410.47 463.446ZM367.266 465.82C366.941 464.626 365.949 463.503 364.712 463.491C363.108 463.475 362.058 465.752 363.112 466.961C364.166 468.17 366.565 467.442 366.768 465.851C366.948 464.441 367.639 467.191 367.266 465.82ZM368.244 498.637C368.625 498.313 368.898 497.865 369.011 497.378C367.956 496.198 366.105 495.816 364.669 496.481C364.35 496.629 364.043 496.832 363.862 497.132C363.344 497.992 364.203 499.148 365.193 499.312C366.183 499.476 367.153 498.993 368.041 498.525L368.244 498.637Z" fill="#00160A"/>
</svg>
