<svg width="136" height="272" viewBox="0 0 136 272" fill="none" xmlns="http://www.w3.org/2000/svg">
<path fill-rule="evenodd" clip-rule="evenodd" d="M81.7774 180.66C81.5165 182.95 80.6758 187.686 80.2633 190.012C80.1433 190.688 80.0591 191.162 80.0351 191.317C77.6995 203.533 76.7437 215.946 76.3002 228.358C76.1701 229.972 76.2348 231.583 76.5155 233.179C76.5297 233.261 76.5447 233.343 76.5604 233.425C76.6386 233.409 76.7183 233.394 76.7993 233.381C80.0838 232.847 82.2964 235.247 84.4344 237.51C85.2703 238.394 86.0946 239.266 86.9597 239.961C89.0362 241.815 91.2835 243.464 93.6383 244.945C94.601 245.512 95.6932 246.183 96.4306 247.072C96.9325 247.677 97.2675 248.385 97.2588 249.237L97.2557 249.529L97.5444 249.485C97.6306 249.471 97.7026 249.476 97.761 249.504C97.823 249.533 97.8654 249.587 97.8998 249.65C98.0532 249.932 98.0529 250.379 98.0612 250.718C98.0637 250.805 98.0657 250.886 98.0692 250.958C98.0953 251.975 97.6355 252.646 96.9433 253.106C95.8657 253.821 94.2581 254.046 92.9551 254.236C92.7137 254.271 92.4828 254.305 92.2651 254.34C84.2491 255.2 76.1336 253.029 68.7165 250.088C68.6957 250.08 68.6748 250.071 68.6539 250.063C68.6338 250.067 68.6136 250.07 68.5931 250.072C68.0021 250.15 67.4936 249.835 67.0915 249.379C66.5357 248.749 66.1739 247.838 66.0877 247.131C66.0122 246.789 66.0595 246.471 66.1016 246.156C66.1576 245.736 66.2049 245.322 66.0741 244.916C65.0511 242.588 64.9165 240.057 65.063 237.577C65.023 234.507 65.7277 233.641 66.3012 232.954C66.7826 232.378 67.1715 231.91 67.0463 230.601C67.0306 230.408 66.9697 229.165 66.9962 228.547L67.1882 228.519C66.8838 224.129 65.7802 219.781 64.6758 215.436C62.8772 208.36 61.071 201.292 62.8038 194.059C63.3506 191.829 64.4327 189.855 65.5179 187.869C66.2066 186.608 66.8977 185.343 67.4609 184.008C67.471 183.984 67.4811 183.96 67.4911 183.936C67.4856 183.912 67.4804 183.889 67.4758 183.865C67.3694 183.312 67.5012 182.748 67.6264 182.181C67.7412 181.662 67.8532 181.14 67.8264 180.619C67.8167 179.639 67.624 178.701 67.4212 177.751C67.4108 177.703 67.4004 177.654 67.3899 177.606C67.3426 177.592 67.295 177.579 67.2477 177.565C66.32 177.296 65.4136 176.967 64.543 176.536L64.3099 176.421L64.2059 176.659C64.1729 176.735 64.1245 176.793 64.0664 176.833C64.0024 176.877 63.9277 176.898 63.8525 176.901C63.7708 176.905 63.688 176.886 63.6167 176.846C63.5604 176.815 63.511 176.77 63.4758 176.713C63.3764 176.306 63.4873 175.877 63.5864 175.451C63.6518 175.171 63.7158 174.891 63.7374 174.619C63.7694 174.463 63.7972 174.28 63.8264 174.086C63.9078 173.544 63.9931 172.889 64.2859 172.5C64.3694 172.389 64.471 172.303 64.6021 172.26C64.7277 172.219 64.8769 172.218 65.0539 172.259C65.1579 172.283 65.247 172.316 65.3221 172.357C65.3336 172.253 65.3451 172.148 65.3562 172.044C65.8244 167.617 65.9134 163.153 65.6536 158.71C65.6334 158.365 65.6111 158.021 65.5868 157.677C65.4473 157.994 65.311 158.311 65.1778 158.628C64.3798 160.531 63.6793 162.505 62.9795 164.478C62 167.239 61.0216 170 59.7729 172.559C59.7527 172.6 59.7322 172.642 59.712 172.683C59.736 172.709 59.7558 172.741 59.7722 172.775C59.8018 172.836 59.8171 172.9 59.8049 172.965C59.7934 173.027 59.7569 173.086 59.6991 173.143C59.2355 173.592 58.9941 174.194 58.7604 174.797C58.7485 174.828 58.7367 174.858 58.7249 174.889C58.5492 175.443 58.2612 175.947 57.8703 176.332C57.5228 176.674 57.0939 176.923 56.5941 177.018C56.5416 177.028 56.4894 177.036 56.4372 177.042C56.4244 177.097 56.4115 177.151 56.399 177.205C56.3367 177.47 56.272 177.749 56.2042 178.04C55.4129 181.452 54.2296 186.568 52.0964 190.333C50.7311 192.743 48.9784 194.607 46.6609 195.044C46.4922 195.076 46.3235 195.1 46.1551 195.115C46.2957 195.186 46.4136 195.283 46.4953 195.417C46.7621 195.854 46.496 196.45 46.2946 196.996C46.1757 197.318 46.0626 197.631 46.0177 197.909C45.8014 198.528 45.6202 199.164 45.439 199.8C45.1068 200.968 44.7757 202.138 44.2125 203.206C44.1917 203.246 44.1701 203.286 44.1485 203.326C44.1711 203.353 44.1885 203.381 44.2021 203.414C44.2244 203.47 44.2285 203.525 44.2223 203.591C44.2167 203.651 44.2049 203.699 44.1791 203.745C44.2337 203.767 44.287 203.794 44.3395 203.826C44.5903 203.98 44.7437 204.214 44.8198 204.481C44.9124 204.805 44.8939 205.176 44.7951 205.527C44.6922 205.894 44.5009 206.24 44.2442 206.492C44.0285 206.703 43.7663 206.847 43.471 206.865C43.4508 206.866 43.431 206.866 43.4111 206.866C43.3955 206.877 43.3795 206.887 43.3635 206.896C43.2327 206.97 43.0508 207.01 42.8804 207.013L42.8219 207.501C42.8588 207.542 42.8644 207.564 42.8616 207.585C42.6111 210.603 41.8943 213.545 41.1812 216.476C41.0487 217.02 40.9165 217.563 40.7871 218.107C40.536 218.973 40.3499 219.865 40.1642 220.758C39.8591 222.224 39.5558 223.692 38.9475 225.044C38.9322 225.077 38.9169 225.111 38.9016 225.144C38.9165 225.176 38.9308 225.208 38.9447 225.241C39.2484 225.97 39.1864 226.812 39.0355 227.571C38.7899 227.852 38.3287 227.828 37.9454 227.84C37.7983 227.844 37.6567 227.849 37.5294 227.862C37.4484 227.87 37.3621 227.883 37.2727 227.899C37.2856 227.98 37.2981 228.062 37.3096 228.143C37.4957 229.451 37.4887 230.783 37.4824 232.11C37.479 232.86 37.4755 233.609 37.5058 234.35C37.5092 234.438 37.5134 234.526 37.5179 234.613C37.5979 234.601 37.6807 234.593 37.767 234.588C38.6056 234.542 39.1882 234.887 39.6125 235.428C40.2678 236.263 40.5635 237.535 40.8237 238.619C40.8943 238.915 40.9621 239.197 41.0324 239.455C41.5666 241.246 42.2504 242.971 42.9346 244.696C43.8459 246.995 44.7583 249.292 45.3026 251.732L45.3857 252.104L45.6922 251.877C45.7197 251.857 45.7517 251.842 45.7875 251.841C45.823 251.84 45.8602 251.851 45.8988 251.874C46.9931 252.531 47.0049 253.888 47.0511 255.03C47.0553 255.131 47.0591 255.23 47.0637 255.328C47.0529 255.569 47.0706 255.829 47.0891 256.093C47.1336 256.725 47.2261 257.417 46.6915 257.821C42.9127 260.398 37.8035 260.324 33.4359 259.647C31.6948 259.33 29.995 258.799 28.3812 258.073C27.7711 257.865 27.3149 257.647 27.0358 257.287C26.7988 256.981 26.7007 256.576 26.7392 256.012C26.6317 254.988 26.7239 254.012 26.8146 253.036C26.8931 252.19 26.971 251.343 26.9291 250.49C27.0572 247.214 27.8062 243.976 28.5426 240.787C28.5721 240.659 28.6016 240.532 28.631 240.404C28.6741 240.269 28.7175 240.131 28.7616 239.991C29.3287 238.188 29.998 235.978 31.627 234.968C31.6722 234.958 31.745 234.956 31.8256 234.949C32.0406 234.931 32.2946 234.902 32.4456 234.829C32.4496 234.827 32.4537 234.825 32.4576 234.823L32.3649 235.137L32.8498 234.929C32.9617 234.881 33.0789 234.845 33.199 234.822C33.2386 234.815 33.2784 234.809 33.3185 234.804C33.3381 234.765 33.3574 234.726 33.3764 234.687C34.0359 233.322 34.3423 231.835 34.646 230.348C34.8338 229.43 35.0209 228.511 35.2964 227.624C35.32 227.547 35.3444 227.471 35.3691 227.395C35.2946 227.372 35.2209 227.346 35.1485 227.318C34.3822 227.023 33.6868 226.433 33.4714 225.634C33.5233 225.409 33.6307 225.162 33.7931 224.978C33.9135 224.841 34.066 224.737 34.2549 224.725L34.5953 224.704L34.4697 224.386C34.3452 224.072 34.3274 223.714 34.3654 223.376C35.007 219.419 35.8619 215.496 36.7826 211.593C37.1332 210.142 37.5082 208.696 37.9315 207.264C37.9934 207.091 38.0424 206.897 38.0925 206.697C38.1962 206.283 38.2904 205.83 38.592 205.569C38.6637 205.507 38.7444 205.459 38.8313 205.42C38.7538 205.35 38.6779 205.278 38.6038 205.205C37.9604 204.57 37.4146 203.799 37.399 202.933C37.3687 202.569 37.5409 202.194 37.807 201.961C37.8946 201.884 37.9927 201.823 38.0988 201.785L38.5064 202.036C38.6042 202.096 38.6974 202.165 38.791 202.233C38.8699 202.291 38.9485 202.348 39.0292 202.401L40.0042 203.046L39.3746 202.061C38.8797 201.286 39.1252 200.342 39.3245 199.475C39.3781 199.241 39.431 199.012 39.471 198.79C39.5235 198.554 39.575 198.317 39.6268 198.079C39.9395 196.641 40.255 195.185 40.8049 193.831C40.8271 193.776 40.8498 193.721 40.8727 193.666C40.8275 193.628 40.7826 193.59 40.7378 193.551C38.5976 191.692 37.76 189.397 37.6518 186.937C37.4957 183.39 38.8383 179.504 40.0275 176.043C40.3298 175.163 40.6226 174.31 40.88 173.497C40.8974 173.442 40.9151 173.386 40.9325 173.33C40.8845 173.292 40.8365 173.256 40.7885 173.221C40.4971 173.011 40.1475 172.817 39.7871 172.617C38.8925 172.122 37.8765 171.607 37.7412 170.599C37.7562 170.058 37.9684 169.535 38.1711 169.022C38.2532 168.813 38.335 168.606 38.4049 168.4C38.4591 168.157 38.6244 167.842 38.8348 167.699C38.8804 167.669 38.9284 167.644 38.9795 167.649C39.0251 167.654 39.0671 167.685 39.1106 167.731L39.4017 168.038L39.5273 167.634C39.5917 167.427 39.656 167.22 39.7207 167.012C40.9527 163.057 42.2024 159.029 42.0901 154.852C42.0884 154.791 42.0863 154.73 42.0842 154.669C42.0233 154.649 41.9618 154.632 41.8984 154.617C41.4696 154.517 41.0338 154.557 40.6038 154.6C40.0633 154.654 39.5259 154.729 39.0411 154.366C34.6237 150.985 35.1044 142.367 35.4828 137.336C35.4877 137.27 35.4925 137.204 35.4974 137.138C35.4362 137.121 35.375 137.102 35.3141 137.082C35.1089 137.013 34.9127 136.929 34.7344 136.823L34.5879 136.736L34.4542 136.841C34.3894 136.844 34.3515 136.806 34.3093 136.761C34.1368 136.578 33.9662 136.244 33.7963 135.835C33.1951 134.388 32.6572 132.02 32.4984 131.322C32.4944 131.304 32.4907 131.288 32.4866 131.27C29.2719 116.692 30.5018 101.661 31.7066 86.8911C31.7927 85.8355 31.8787 84.7817 31.9629 83.7292C32.2223 81.7837 32.3217 79.7922 32.421 77.7962C32.6242 73.7123 32.8229 69.6093 34.4332 65.8567C35.5085 63.1158 38.5402 62.4791 41.1148 61.9026C41.1854 61.8869 41.2557 61.8709 41.3259 61.8552C42.6668 61.4556 44.015 61.1473 45.3614 60.839C47.4247 60.3665 49.4838 59.894 51.4494 59.1192C51.5555 59.077 51.6616 59.0344 51.7673 58.9908C51.6918 58.9134 51.6223 58.8311 51.5597 58.7439C51.2146 58.2631 51.0793 57.6336 51.1148 57.0094C51.1517 56.3615 51.3725 55.7157 51.7513 55.2372C51.8998 55.1277 52.0744 55.1162 52.2511 55.1452C52.5983 55.202 52.96 55.4078 53.2546 55.5703C53.2838 55.5863 53.3124 55.602 53.3402 55.6173L53.5611 55.7383L53.6783 55.5152C54.1412 54.6343 54.4626 53.6631 54.7771 52.7104C54.9583 52.1602 55.1374 51.6162 55.3423 51.1004C55.9697 49.7735 57.0463 49.1371 58.288 48.892C60.1597 48.523 62.3983 49.0213 64.1294 49.4538C64.1917 49.4698 64.2543 49.4855 64.3169 49.5015C65.1903 49.7233 66.127 49.9542 66.8532 50.4996C68.0623 51.4659 68.319 52.9681 68.592 54.4418C68.7304 55.1877 68.8692 55.9301 69.1127 56.6074C69.1402 56.6834 69.1691 56.7594 69.1993 56.8347C69.2682 56.8037 69.3357 56.7803 69.4014 56.7653C70.3586 56.546 72.4602 57.7913 73.1847 58.4549C73.3739 58.5804 73.4605 58.7052 73.5057 58.8461C73.5805 59.0805 73.5565 59.349 73.5391 59.6144C73.5311 59.7343 73.5235 59.8543 73.5221 59.9711C73.5214 60.0398 73.5224 60.1092 73.5249 60.1789C73.591 60.1922 73.6571 60.2051 73.7228 60.2176C74.1492 60.3006 74.5844 60.3815 75.0251 60.4638C78.1784 61.0511 81.6174 61.6826 84.0706 63.4196C85.7857 64.6341 87.0087 66.3969 87.2946 69.0765C88.2011 72.949 88.6821 76.8616 89.128 80.7759C89.1875 81.2931 89.247 81.8106 89.3061 82.3284C90.0237 88.6075 90.7471 94.9227 92.6974 100.959C92.8887 101.428 93.0744 101.88 93.2602 102.332C96.1764 109.425 99.1357 116.614 99.8358 124.327C100.215 128.013 100.158 131.737 99.5273 135.39C99.4904 135.587 99.3346 135.726 99.1569 135.798C98.9614 135.878 98.7273 135.885 98.5524 135.774L97.6191 135.185L98.2108 136.117C99.4564 138.078 98.4132 141.527 97.7075 143.962C97.6028 144.322 97.5044 144.662 97.4198 144.973C96.8779 146.771 96.0011 148.729 94.6237 149.768C94.1026 150.161 93.5085 150.419 92.8324 150.477C92.2111 150.53 91.5228 150.414 90.76 150.087C90.6644 150.047 90.5718 150.004 90.4824 149.961C90.4616 150.063 90.4407 150.164 90.4198 150.265C88.9217 157.551 87.2497 164.772 85.2651 171.942L84.9885 172.941L85.687 172.176C85.7986 172.053 85.9263 171.981 86.0595 171.955C86.2091 171.925 86.3628 171.952 86.5044 172.016C86.6657 172.089 86.8118 172.211 86.9207 172.364C87.0198 172.504 87.0884 172.67 87.1075 172.851C87.0504 173.831 86.7343 174.772 86.4219 175.712C86.2553 176.213 86.0891 176.715 85.9593 177.219C85.8143 177.74 85.5082 178.061 85.1158 178.263C84.5151 178.572 83.7301 178.622 82.9896 178.676C82.6031 178.705 82.2275 178.733 81.8901 178.79C81.8397 178.799 81.7885 178.809 81.7371 178.819C81.7221 178.868 81.7078 178.917 81.6936 178.966C81.5941 179.312 81.5068 179.66 81.4191 180.01C81.3492 180.289 81.2797 180.568 81.2031 180.845L81.6793 180.983C81.7141 180.868 81.7468 180.76 81.7774 180.66ZM44.8087 137.272C44.8254 135.18 45.5708 133.207 46.3092 131.237C46.6171 130.416 46.9245 129.596 47.1812 128.769C47.1965 128.719 47.2115 128.67 47.2264 128.621C47.1878 128.582 47.1489 128.545 47.1092 128.51C46.9207 128.342 46.688 128.19 46.4508 128.035C46.1193 127.82 45.7739 127.604 45.5684 127.311C45.4418 127.132 45.3764 126.92 45.4202 126.632C45.5395 124.476 45.6866 122.32 45.8626 120.168C45.9037 119.709 45.9454 119.249 45.9871 118.789C46.7214 110.684 47.4612 102.486 46.0066 94.4216C45.9426 94.0541 45.8678 93.6907 45.7931 93.3274C45.743 93.0829 45.6925 92.8385 45.6459 92.5933C45.639 92.5574 45.6313 92.5096 45.6226 92.4538C45.5809 92.1891 45.5106 91.7679 45.3694 91.4603C45.2414 91.1827 45.0543 91.0049 44.8303 90.9658C44.7513 90.9522 44.6706 90.9561 44.5903 90.9767C44.5757 91.0342 44.5614 91.0928 44.5471 91.1517C42.111 101.19 42.7221 111.43 43.336 121.65C43.6184 126.352 43.9009 131.05 43.8831 135.722C43.8831 135.768 43.8828 135.814 43.8828 135.859C43.9117 135.869 43.9395 135.884 43.9645 135.907C44.0278 135.964 44.0452 136.044 44.0327 136.119C44.0174 136.209 43.9604 136.296 43.8734 136.341C43.8428 136.357 43.8104 136.368 43.7777 136.373C43.768 136.417 43.7579 136.46 43.7478 136.504C43.7009 136.704 43.6484 136.902 43.5896 137.099C43.5753 137.148 43.5604 137.196 43.5454 137.244C43.5823 137.279 43.6195 137.314 43.6564 137.35C43.9054 137.586 44.1558 137.821 44.4087 138.054L44.8602 138.468L44.8237 137.856C44.8122 137.66 44.8073 137.466 44.8087 137.272Z" fill="white"/>
<path fill-rule="evenodd" clip-rule="evenodd" d="M55.1552 51.077C55.7983 51.5984 55.1273 55.3593 54.6091 56.1268C58.1152 58.3862 61.6578 60.5939 65.2745 62.6632L65.6491 62.8769H65.6473C65.7983 62.9453 66.0432 62.9993 66.191 62.9711L66.3005 62.9348C66.3169 62.93 66.3259 62.9279 66.3207 62.932C66.3778 62.9017 66.4331 62.8696 66.4873 62.8341L66.543 62.7821C67.5979 61.7795 68.2762 60.286 69.087 59.0494C67.7117 57.8352 68.3972 55.4688 68.4529 53.8525C68.7127 53.8458 68.7433 54.6716 68.8178 54.9112L68.8456 55.0632C68.9482 55.6226 69.0619 56.1959 69.2762 56.7168C69.871 55.9629 72.8828 57.7445 73.447 58.3178C74.0616 58.7101 73.8731 59.4076 73.8651 60.0206C79.5802 61.1334 86.8682 61.9162 87.6358 69.0963C88.5395 72.9479 89.0223 76.8682 89.4689 80.7937L89.5176 81.2111C90.3082 88.0338 90.9924 94.9468 93.2192 101.481L93.9771 103.29C95.8285 107.715 97.6428 112.175 98.824 116.832C99.7259 118.79 102.128 137.471 98.5151 136.03C99.7503 138.047 98.8261 140.702 98.3969 142.859C97.5065 146.46 95.5993 152.44 90.7576 150.362C89.2588 157.65 87.5851 164.879 85.599 172.055C86.2616 171.328 87.3691 171.971 87.4512 172.892C87.4418 174.076 86.8748 175.197 86.5976 176.338L86.5743 176.44C86.1885 178.082 85.5889 178.828 83.7892 178.884C78.7291 179.558 73.5444 179.331 68.5691 178.185C70.3148 184.267 64.7739 188.985 63.6066 194.608C61.1645 206.041 67.3565 216.98 68.1593 228.287C68.2758 229.271 68.3757 230.257 68.4609 231.244C68.4832 232.262 68.8727 233.513 68.3221 234.409C68.839 235.605 69.9913 236.621 71.2779 236.892C73.6998 237.202 74.0205 233.971 76.0943 233.4C75.3068 229.627 74.9757 225.799 75.2689 221.952L75.3225 221.093C76.2056 207.058 77.4487 192.753 82.0752 179.402C82.1172 179.277 82.2891 179.33 82.2696 179.455C80.0772 193.972 77.1802 208.419 76.8783 223.154C76.8832 226.496 76.2508 229.872 76.8543 233.182C81.4898 232.43 84.0745 237.295 87.2105 239.814C89.2793 241.662 91.5186 243.306 93.8654 244.781L94.0174 244.871C95.6668 245.85 97.6244 247.159 97.6014 249.286C98.7033 249.099 98.4397 251.509 98.2442 252.145C98.0153 252.859 97.3503 253.27 96.7127 253.587C87.5412 256.663 77.4397 253.667 68.7204 250.364C67.192 250.566 66.0999 248.543 65.9367 247.208C65.7701 246.471 66.1611 245.756 65.9332 245.037C64.9047 242.703 64.7614 240.125 64.911 237.608C64.8299 232.32 66.9444 233.44 66.9079 231.024L66.887 230.588C66.8404 229.584 66.7572 227.365 67.0359 228.583C66.2296 216.81 59.583 205.257 62.8404 193.393C63.8261 190.003 65.9642 187.211 67.3277 183.958C67.1211 182.887 67.7325 181.779 67.6738 180.673C67.6661 179.707 67.4731 178.785 67.2738 177.849C66.3322 177.577 65.4119 177.242 64.528 176.804C64.2324 177.484 63.1287 177.238 63.279 176.38L63.5865 174.63L63.5979 174.572C63.7847 173.614 63.8178 171.742 65.2045 172.064C65.6724 167.651 65.76 163.2 65.5012 158.77C63.5847 163.34 62.2334 168.322 60.0905 172.713C60.1906 172.912 60.1806 173.16 59.968 173.365C58.7562 174.745 58.9677 176.871 56.735 177.308C55.1892 183.184 53.5739 193.574 46.8018 195.334C47.2532 196.047 46.4727 197.221 46.3545 198.015C45.7273 199.799 45.4192 201.662 44.527 203.368C44.5607 203.45 44.5757 203.548 44.5642 203.661C45.8835 204.468 45.0466 207.074 43.5802 207.158C43.4178 207.25 43.1924 207.303 42.9799 207.307C43.1162 207.352 43.2185 207.47 43.2028 207.661C42.9054 211.242 41.9506 214.73 41.1221 218.215C40.4557 220.506 40.2498 223.022 39.2682 225.192C39.5948 225.949 39.5232 226.879 39.3774 227.671C39.0925 228.233 38.1879 228.089 37.6501 228.155C37.6526 228.159 37.655 228.164 37.6567 228.169C37.6574 228.169 37.6574 228.169 37.6574 228.168C37.9423 230.21 37.7642 232.324 37.8484 234.387C40.4668 234.244 40.8445 237.522 41.3666 239.436C42.6112 243.606 44.6849 247.449 45.6397 251.724C45.767 251.63 45.9395 251.601 46.119 251.706C47.6804 252.702 47.3117 254.833 47.4397 256.429C47.8212 259.256 42.4776 259.902 40.4421 260.197C35.8762 260.652 30.9494 259.957 26.9782 257.59C26.2258 256.608 26.583 253.04 26.8312 251.742C26.6002 248.03 27.6451 244.352 28.3916 240.743L28.4665 240.493C29.0701 238.474 29.778 235.931 31.6191 234.787C31.8128 234.72 32.6449 234.776 32.5366 234.458L32.5311 234.443C32.4823 234.326 32.6649 234.226 32.7442 234.32C32.9119 234.516 32.9036 234.754 32.7359 234.954C32.5063 235.228 32.1387 235.173 31.8511 235.337C30.7611 236.456 30.3402 238.151 29.8332 239.603C30.2123 239.303 30.5931 239.016 30.9921 238.747C30.9145 238.683 30.8624 238.583 30.8484 238.482C30.4307 238.059 31.5452 236.647 31.7265 236.128C31.8925 235.815 32.2246 235.849 32.4187 236.037C34.2253 233.579 34.3018 230.428 35.1545 227.596L35.1058 227.576C34.2984 227.244 33.1595 226.348 33.3794 225.436C33.5378 225.021 33.8368 224.546 34.3343 224.524C34.1964 224.174 34.1708 223.779 34.2145 223.391C34.8574 219.425 35.7138 215.493 36.6365 211.582C36.992 210.107 37.3743 208.635 37.8059 207.179L37.8929 206.888C38.007 206.51 38.1399 205.715 38.5249 205.428C37.5353 204.502 36.5565 202.697 37.8779 201.713C38.3513 201.28 39.5245 201.86 38.7315 201.871C38.9138 201.983 39.0825 202.122 39.2609 202.241C38.6007 201.226 39.1239 199.882 39.3228 198.788L39.3767 198.542C39.7266 196.942 40.0564 195.296 40.6703 193.784C34.5887 188.518 38.7357 179.779 40.7388 173.469C39.3952 172.59 36.8334 171.68 37.7931 169.646C38.0786 169.078 38.4407 166.874 39.3858 167.606L39.8112 166.239C40.9569 162.543 42.0432 158.793 41.9374 154.905C41.0442 154.694 40.2324 155.134 39.3722 154.825C34.4513 151.783 34.9572 142.464 35.3305 137.363C35.1082 137.289 34.896 137.197 34.7027 137.082C34.5317 137.21 34.2724 137.217 34.1724 136.982C33.9205 136.389 33.5967 135.811 33.3776 135.209C27.6759 115.589 31.3169 94.913 32.4647 74.9129C32.9121 70.804 32.9154 65.2256 36.9941 62.9613C38.3628 62.3124 39.9079 62.0337 41.3666 61.6596C44.7141 60.6605 48.2108 60.2127 51.4532 58.9343C50.6988 57.8857 50.8783 56.3559 51.5072 55.301C52.0056 54.5419 52.9625 55.1229 53.5541 55.4458C54.2369 54.0495 54.7051 52.5608 55.1552 51.077ZM45.8192 252.625L45.8724 252.96C45.9826 253.656 46.0814 254.347 46.0421 255.056C46.2421 255.184 46.3642 255.415 46.3781 255.648C46.3959 255.943 46.2491 256.227 45.8842 256.325C40.3169 257.76 34.0883 258.067 28.7959 255.517C27.9414 255.265 27.5096 254.548 27.2635 253.741C27.3333 254.645 27.151 256.361 27.6715 257.066C31.5617 259.092 36.088 259.893 40.4421 259.394C42.4379 259.162 44.4626 258.623 46.1329 257.467C46.6679 257.23 46.4449 256.643 46.456 256.183C46.3148 255.026 46.6825 253.548 45.8192 252.625ZM37.8626 238.48C35.1524 237.119 32.0432 238.838 29.6689 240.192C28.9252 244.166 27.0662 250.332 28.8784 254.022C33.5945 256.557 39.2258 256.36 44.3263 255.254C44.3924 255.188 44.4633 255.133 44.5503 255.093C44.5426 255.104 44.5792 255.076 44.584 255.072C44.5847 255.07 44.5858 255.067 44.5858 255.065L44.5997 255.053C44.6021 255.051 44.6042 255.049 44.6063 255.047C44.599 255.052 44.5931 255.056 44.5875 255.061L44.5882 255.056C44.5892 255.058 44.616 255.034 44.6244 255.041L44.6546 255.019C44.6999 254.983 44.6411 255.018 44.5889 255.055C44.6042 254.991 44.6261 254.927 44.6352 254.862C44.6338 254.866 44.6338 254.87 44.6327 254.872C44.7287 252.262 43.7353 249.636 42.9395 247.161C42.6734 246.41 42.3941 245.662 42.1165 244.914C41.4619 244.172 41.1061 243.128 40.6818 242.249L40.6522 242.188C39.9708 240.8 39.1938 239.345 37.8626 238.48ZM66.7079 246.416C66.4546 249.033 69.0018 250.075 71.0644 250.703C73.3851 251.529 75.7621 252.214 78.1527 252.807C83.0505 254.069 88.1562 254.622 93.1764 253.831L93.3082 253.807C94.7645 253.554 97.3103 253.236 97.6362 251.575L97.6383 251.551C97.6602 251.3 97.7065 250.232 97.6014 249.962C97.5635 249.961 97.5263 249.953 97.4908 249.936C97.071 251.278 95.5419 252.095 94.0682 252.306C93.3732 253.004 92.0929 252.745 91.1666 252.785C85.0508 252.725 79.1715 250.83 73.3767 249.069C71.5301 248.427 67.8602 247.968 66.7079 246.416ZM67.3319 232.015C67.2839 232.267 67.1645 232.506 67.0188 232.713C67.1294 232.671 67.5805 233.014 67.2699 232.981C66.2247 232.412 65.9475 235.605 65.8359 236.277C65.4936 239.348 65.5019 244.14 67.9868 246.318C70.5799 247.429 73.3788 247.939 76.0532 248.814L76.6863 249C81.7562 250.485 86.967 251.874 92.2877 251.655C92.7176 250.842 95.2164 251.529 96.2091 250.088C97.5068 247.81 94.2289 246.352 92.6637 245.38C89.6724 243.458 86.8786 241.224 84.3593 238.715C83.1746 237.535 82.0908 236.185 80.6998 235.237L80.6272 235.188C79.4355 234.397 77.9058 233.907 76.5061 234.426C75.143 234.931 74.6425 236.489 73.4992 237.294C71.0077 238.989 67.9799 236.157 67.5517 233.799C67.4073 233.219 67.3628 232.614 67.3319 232.015ZM37.8522 234.727C37.8588 235.205 37.872 235.682 37.8912 236.16C38.5885 236.269 38.8894 237.116 39.1701 237.704C39.6254 238.3 39.8939 239.008 40.4153 239.572C40.2379 238.722 40.1082 237.864 39.9159 237.015C39.6637 235.896 39.0383 234.874 37.8522 234.727ZM33.0524 237.648C32.8666 237.669 32.6807 237.685 32.4949 237.694L32.4357 237.769L32.4057 237.807C32.3495 237.877 32.2917 237.946 32.2338 238.015C32.5008 237.88 32.7744 237.759 33.0524 237.648ZM35.5075 227.733C35.2769 229.686 35.1138 231.656 34.66 233.572C34.4196 234.525 34.0471 235.43 33.5283 236.261C34.5626 236.614 35.6988 236.514 36.7541 236.334L36.7482 235.635C36.7298 233.127 36.7597 230.536 37.5461 228.152C36.8445 228.133 36.1753 227.97 35.5075 227.733ZM38.4971 225.867C38.4491 225.889 38.3993 225.909 38.3482 225.927C38.5715 226.299 38.4515 226.853 38.3259 227.251C38.4094 227.238 38.4919 227.223 38.5746 227.205C38.6216 226.746 38.5705 226.316 38.4971 225.867ZM38.9075 205.776C38.1851 208.682 37.648 211.68 36.9868 214.62C36.4689 217.146 35.9621 219.672 35.5047 222.209L35.4077 222.753C35.3298 223.192 35.0919 223.927 35.4421 224.304C35.7496 224.634 36.3913 224.789 36.8108 224.898C37.8317 225.249 38.6786 224.844 38.816 223.735C40.0164 218.45 41.7621 213.261 42.3972 207.866L42.4205 207.661C42.4372 207.48 42.5503 207.364 42.6859 207.315C41.2877 207.288 39.9541 206.664 38.9075 205.776ZM43.4359 204.313L43.4407 204.275L43.383 204.296L43.4094 204.305L43.4359 204.313ZM40.8856 193.95C40.6571 195.461 40.3458 196.96 40.0915 198.468L40.0209 198.895C39.7979 200.199 39.2543 201.689 40.6362 202.526C42.5844 204.23 43.8957 203.881 44.44 201.28C44.9659 199.651 45.4602 198.011 45.9245 196.364L46.031 195.983C46.0946 195.755 46.1618 195.563 46.3152 195.415C44.3938 195.667 42.4386 195.101 40.8856 193.95ZM41.0564 173.645C40.4818 177.144 39.2985 180.497 38.6745 183.98C37.1325 189.908 42.2957 197.066 48.5433 193.495C52.2459 190.747 53.1844 185.627 54.5948 181.492C54.9663 180.147 55.2661 178.797 55.5159 177.429C50.4828 177.381 45.4703 176.062 41.0564 173.645ZM67.8703 178.014C68.0974 178.397 68.2654 178.815 68.3844 179.248C68.4352 178.899 68.2477 178.45 68.3778 178.14C68.2084 178.1 68.039 178.058 67.8703 178.014ZM65.1833 172.275C65.0553 172.301 64.9402 172.37 64.832 172.467C65.0978 173.768 64.6908 175.122 64.6066 176.435C71.0779 177.916 77.7604 178.896 84.3739 177.745C85.5715 177.713 85.5322 175.637 85.9378 174.74C86.0598 174.13 86.4251 173.498 86.3597 172.876C86.2998 172.786 86.2268 172.822 86.2706 172.782L86.2825 172.772L86.2696 172.782C85.9197 173.061 85.3451 172.758 85.4198 172.36L85.423 172.345C85.3579 172.394 85.2811 172.422 85.2007 172.433C85.6745 172.863 85.223 173.642 84.6185 173.451C78.8717 175.712 70.8501 175.209 65.3131 172.776C65.1719 172.685 65.1472 172.459 65.1833 172.275ZM39.3179 167.824C39.0435 167.585 38.9607 168.873 38.888 169.078C38.8369 169.594 38.5899 170.116 38.6428 170.635C43.0258 174.427 50.0689 176.163 55.8247 176.241C55.9802 176.099 56.2181 176.084 56.4244 176.167C57.3075 176.047 57.7256 175.207 57.9889 174.451L58.0508 174.294C58.1858 173.956 58.3263 173.62 58.5044 173.307C52.0383 173.51 45.3694 172.269 39.7259 169.012C38.928 169.088 39.1089 168.336 39.3179 167.824ZM42.9458 137.078C40.5889 137.895 38.0171 138.063 35.5889 137.442C36.1218 141.436 36.6567 150.898 40.0498 153.206C40.623 153.123 41.1986 153.082 41.7778 153.14C42.1221 153.175 42.463 153.23 42.8045 153.283C42.9329 153.301 43.1885 153.315 43.3517 153.303L43.3795 153.301C43.3245 153.305 43.2849 153.302 43.4042 153.297L43.4174 153.296L43.4532 153.294C44.6296 153.188 45.6915 151.525 46.8553 152.323C47.0265 152.064 47.2849 151.898 47.4832 151.668C48.3666 150.119 47.4282 148.126 48.0185 146.494C47.7955 146.188 47.8689 145.732 48.2192 145.47C48.7649 144.968 49.919 145.342 50.2331 144.621C50.2115 144.661 50.2101 144.615 50.2185 144.592L50.2206 144.587L50.1652 144.541C47.7538 142.543 45.4223 140.31 43.8421 137.538L43.7892 137.444C43.487 137.738 42.9903 137.513 42.9458 137.078ZM98.0032 135.722C96.2724 136.67 94.4038 137.346 92.4661 137.718C92.1242 141.353 91.7012 144.983 91.088 148.583C92.0393 148.664 93.0132 149.073 93.8421 148.404C96.1976 146.112 97.0466 141.504 97.9715 138.392L98.008 138.251C98.2025 137.487 98.4254 136.431 98.0032 135.722ZM73.8598 60.2759C73.6125 61.5149 74.9767 75.0047 72.4887 72.6972C70.8045 70.0504 68.8783 67.5735 67.1565 64.9539C66.9193 65.8902 67.6132 67.003 67.2852 67.797C71.6672 89.7739 74.8463 112.09 76.024 134.478C77.9607 135.839 79.6592 137.49 81.3238 139.162C81.8428 139.603 82.2195 140.325 82.8637 140.579C85.5468 137.542 88.6578 134.921 91.463 132.001C91.4432 131.859 91.4226 131.717 91.4018 131.574C91.3225 131.027 92.0463 130.753 92.2873 131.118C93.2856 129.805 93.3694 125.742 93.1639 124.038C92.7583 120.215 91.3332 116.563 90.3152 112.879C87.3812 101.61 85.351 89.7879 86.3117 78.1215C86.3259 78.0134 86.4696 78.0117 86.4821 78.1215C87.2797 90.4466 88.5221 102.805 92.2247 114.652L92.3127 114.945C93.7593 119.733 95.5485 124.808 94.3103 129.83C94.4132 130.506 94.0891 131.179 93.599 131.665C93.3266 132.327 93.015 132.979 92.6237 133.574C92.7131 134.607 92.672 135.653 92.56 136.69C94.551 136.29 96.4077 135.491 98.1764 134.509C98.2769 133.936 98.3656 133.361 98.4341 132.783C99.7517 122.069 95.7325 111.65 91.7117 101.924C87.88 90.5896 88.6282 78.2892 85.4261 66.8234C83.4004 62.3521 77.8672 62.0006 73.8598 60.2759ZM52.1416 59.4452C51.1753 59.78 50.2094 60.1922 49.176 60.2215C46.0807 61.2523 42.9068 62.0439 39.7604 62.9041L39.456 62.9875C38.1127 63.3571 36.7565 63.7794 35.8501 64.9086C34.9812 65.991 34.6177 67.3855 34.3338 68.7169C33.003 80.3512 32.249 92.1033 31.5728 103.807C31.2413 113.553 31.4303 123.46 33.9189 132.943C34.2703 134.242 34.6977 135.546 34.8491 136.88C35.0299 136.883 35.2115 136.895 35.3941 136.914C35.3969 136.826 35.5294 136.841 35.5197 136.926C37.9378 137.308 40.4512 137.082 42.7204 136.143C42.16 119.072 38.5165 100.544 46.7691 84.707C46.8028 84.6467 46.9051 84.6882 46.8821 84.7552L46.6786 85.3424C46.024 87.2352 45.3847 89.1305 44.9242 91.0826C45.5802 90.985 46.0585 92.5225 46.1826 92.8995C49.7593 103.768 47.5565 115.365 47.1009 126.526C48.3277 127.414 49.5485 128.309 50.7795 129.19C55.7416 132.742 60.7475 136.24 65.8772 139.545C68.7837 137.655 71.3875 135.176 74.3739 133.461C73.5204 110.402 68.8192 87.5874 66.2637 64.8134C65.3159 65.992 64.3506 67.1575 63.3865 68.3225C62.1468 69.8461 60.9482 71.4087 59.7256 72.9469C59.4727 73.266 58.9218 73.1422 58.7416 72.8203C56.3339 68.4658 54.8028 63.656 52.1416 59.4452ZM44.8828 91.2563C41.3305 105.893 44.2821 120.966 44.2261 135.769C44.4905 136.003 44.3924 136.446 44.0842 136.607C44.0386 136.811 43.9851 137.014 43.9221 137.216C44.1701 137.452 44.4195 137.686 44.6713 137.917C44.4797 134.694 46.1005 131.767 47.0397 128.741C46.5687 128.385 46.0713 128.063 45.6122 127.693C45.2863 127.408 45.2473 127.098 45.2665 126.693L45.2679 126.664C45.7124 117.125 47.4261 107.586 46.344 98.0312C46.1753 96.2329 45.8689 94.4523 45.4974 92.686L45.4894 92.6397C45.4296 92.2857 45.3172 91.332 44.8828 91.2563ZM98.1625 135.636L98.1336 135.652L98.1979 135.706C98.1847 135.684 98.1732 135.66 98.1625 135.636ZM76.9131 130.649C76.0894 129.841 77.3607 128.561 78.1736 129.388C78.9962 130.197 77.7242 131.477 76.9131 130.649ZM76.3705 121.046C76.1885 120.568 76.6946 119.811 77.2296 120.128L77.2463 120.138L77.2536 120.128C77.76 120.428 77.5732 121.047 77.2758 121.417C76.9465 121.757 76.536 121.353 76.3705 121.046ZM75.5969 109.989C74.1645 108.112 77.1739 107.342 76.6807 109.653C76.5757 110.085 75.7092 110.716 75.5969 109.989ZM73.4793 99.5286C72.7193 98.5989 74.3534 97.7989 74.6953 98.9089C74.8912 99.6492 73.968 100.106 73.4793 99.5286ZM81.0849 76.4668C81.5346 76.5369 83.8112 76.0714 83.2251 77.0199C84.1405 81.5975 86.7155 87.1826 83.0393 91.1827L83.0063 91.2152C82.4644 91.7571 81.5972 93.0452 80.7673 92.5145C78.9256 90.9599 76.5527 89.8489 75.1454 87.8594C74.5538 86.2986 75.0574 84.5546 74.9009 82.922C74.8341 80.8565 74.4905 78.8099 74.4167 76.7479C74.4136 76.6478 74.5218 76.6157 74.5896 76.6579C76.7492 76.486 78.9204 76.524 81.0849 76.4668ZM74.663 76.8023C75.64 79.985 75.6619 83.3878 75.6359 86.6864C75.6512 87.0267 75.7113 87.3576 75.8887 87.6174C77.2852 89.2655 79.2755 90.298 80.9336 91.6671C81.6049 91.2281 82.136 90.6673 82.6118 90.0313C85.5256 86.2163 82.8852 81.4144 82.8887 77.1664L82.5152 77.1671C79.9002 77.1705 77.2602 77.136 74.663 76.8023ZM72.4644 88.6221H72.4898C73.4919 88.6249 73.2619 90.3238 72.3162 90.0909C71.519 89.9022 71.6407 88.6326 72.4644 88.6221ZM70.4992 79.9491C69.8045 78.7652 72.0957 78.3074 71.8546 79.6747L71.8598 79.6185C71.8609 79.6077 71.8619 79.598 71.8626 79.5896L71.8456 79.7176C71.7621 80.3223 70.5687 80.7554 70.4992 79.9491ZM68.9329 70.1519L68.9611 70.1449C69.5976 69.9761 70.0679 70.8706 69.5211 71.2723C68.7172 71.8794 68.024 70.3887 68.9329 70.1519ZM53.3492 56.2789L53.2717 56.207C52.4407 55.4437 51.8178 55.0618 51.6334 56.6178C51.5054 57.3766 51.6153 58.3335 52.3423 58.7823C55.823 62.2255 57.1416 67.1425 59.3844 71.3773C61.4094 68.923 63.2939 66.3683 65.2525 63.8645C62.5545 62.2193 59.8296 60.5866 57.168 58.8702C55.896 58.0238 54.5273 57.2532 53.3492 56.2789ZM70.8696 58.3087C69.8226 60.0185 68.8564 61.8678 67.5214 63.3812C67.3513 63.5521 67.1746 63.6877 66.992 63.7909C67.2529 63.7156 67.5986 63.9109 67.5663 64.1975C69.5092 66.1357 71.0974 68.3902 72.615 70.6715C72.9051 66.8977 72.352 63.1085 72.5663 59.3287C72.0731 58.8751 71.4856 58.5644 70.8696 58.3087Z" fill="black"/>
<path fill-rule="evenodd" clip-rule="evenodd" d="M71.8268 27.0031C66.3938 22.585 57.6873 21.1504 51.8717 25.6078C47.3531 29.791 45.4828 41.6781 46.2828 47.6513C46.5051 51.4826 49.4306 55.8252 53.7249 54.6134C54.4543 54.5416 55.1621 54.2619 55.8981 54.2033C56.7784 54.1018 57.6654 54.1001 58.544 54.2242C60.4584 54.4952 62.1555 55.5124 64.0136 55.9877C67.4616 56.87 71.3085 56.2764 74.2765 54.2895C84.0838 47.8378 79.6414 33.2473 71.8268 27.0031Z" fill="white"/>
<path fill-rule="evenodd" clip-rule="evenodd" d="M71.103 56.0937C71.2038 56.0592 71.3047 56.0229 71.4045 55.9856C71.4111 56.0086 71.4219 56.0309 71.4344 56.0526C71.4484 56.0871 71.4626 56.1209 71.4779 56.1551C71.3527 56.1558 71.2268 56.1335 71.103 56.0937ZM70.9016 13.2796C70.8571 13.1796 70.8056 13.0838 70.7478 12.9911C70.8884 13.0367 71.0289 13.0995 71.1558 13.1805C71.0699 13.2094 70.9857 13.2425 70.9016 13.2796ZM49.4414 26.3515C49.4358 26.3505 49.4299 26.3497 49.4244 26.3487C49.4981 26.1524 49.6292 25.9671 49.7743 25.8333C49.8004 25.8092 49.8285 25.787 49.8557 25.764C49.7019 25.9474 49.5621 26.1431 49.4414 26.3515ZM88.7078 46.8774C88.6351 46.188 88.5426 45.5014 88.423 44.8186C88.3078 44.1651 88.2115 43.4659 87.8783 42.8857C87.5478 42.3078 87.2167 41.7468 86.8237 41.2383C86.8797 40.9789 86.9541 40.7351 87.0184 40.5384C87.3903 39.4062 87.7562 37.968 86.9837 36.916C86.8045 36.6719 86.5857 36.4853 86.3353 36.3165C86.2289 36.2447 86.0522 36.1795 85.9701 36.0801C85.9124 36.01 85.9322 36.048 85.9297 36.0131C85.9158 35.8266 86.3534 35.4322 86.456 35.2843C86.6477 35.0106 86.7906 34.7024 86.8995 34.3875C87.3308 33.1412 87.0376 31.7684 86.7781 30.5195C86.641 29.8575 86.4897 29.1939 86.4404 28.5178C86.3941 27.883 86.4807 27.2631 86.5318 26.6317C86.5816 26.0085 86.5684 25.3655 86.3016 24.7885C86.1711 24.5075 85.9736 24.2596 85.7332 24.0662C85.4988 23.877 85.2063 23.7671 84.9774 23.5786C84.7492 23.3909 84.8146 23.1373 84.8741 22.8778C84.9558 22.5257 85.0591 22.1761 85.0689 21.8124C85.0873 21.1785 84.8285 20.561 84.4247 20.0817C84.0084 19.5866 83.4136 19.2518 82.7708 19.1766C82.4769 19.1419 82.1878 19.2007 81.8953 19.18C81.6063 19.1602 81.5437 19.0155 81.4891 18.7511C81.3635 18.1452 81.4146 17.5468 81.1165 16.9815C80.8522 16.479 80.3819 16.1384 79.8623 15.9377C78.9099 15.5691 77.8024 15.6451 76.7979 15.8624C76.2049 14.1169 74.3537 12.9722 72.5322 12.9581C72.248 12.4755 71.7663 12.1151 71.217 11.9035C70.3085 11.5522 69.3461 11.7573 68.3993 11.7573H68.3951C68.3002 11.7514 68.2052 11.749 68.1103 11.7498C68.0209 11.7448 67.9318 11.7373 67.8424 11.7275C66.7656 11.6001 65.6998 11.1588 64.6327 11.5911C64.1569 11.7837 63.7784 12.0804 63.5388 12.4589C63.1781 12.5572 62.8219 12.6697 62.4724 12.8003C60.9583 12.8399 59.4581 13.6523 58.6925 14.969C57.6146 14.8467 56.4449 15.0541 55.7318 15.9352C55.5461 16.1645 55.4024 16.4338 55.3071 16.7198C54.5802 16.955 53.9075 17.3741 53.4671 18.0054C53.0654 18.5815 52.9885 19.3263 53.2602 19.9447C52.6111 20.4151 52.104 21.0884 51.8598 21.8835C51.7113 22.3666 51.6894 22.8657 51.7847 23.3412C51.1204 23.4886 50.4849 23.7619 49.9217 24.1721C49.3318 24.6018 48.5948 25.2858 48.5562 26.0729C48.5531 26.1307 48.5555 26.1885 48.56 26.2461C47.2609 26.1547 45.9367 26.3749 45.0584 27.4169C44.3993 28.1986 44.1127 29.2054 44.2887 30.122C42.743 30.4361 41.2817 31.2444 40.2623 32.4395C39.5214 33.3081 38.8633 34.4123 38.9026 35.595C38.9151 35.9514 38.9986 36.3099 39.1433 36.6415V36.6422C39.0814 36.7587 39.0174 36.8884 38.9565 37.0265C37.999 37.6967 37.3037 38.7474 36.912 39.9052C36.5958 40.8432 36.3965 42.0616 36.7343 43.0161C36.7857 43.1615 36.8508 43.2989 36.927 43.4262C36.8633 43.4938 36.8031 43.5618 36.7444 43.6302C36.0991 44.3848 35.4456 45.3354 35.4904 46.3742C35.5085 46.7924 35.6637 47.2133 35.9176 47.5585C35.0254 48.4638 34.3067 49.6058 34.3776 50.8811C34.4388 51.991 35.0477 53.1184 36.0017 53.6516C35.8424 54.507 36.0553 55.4095 36.721 56.0773C37.0532 56.411 37.4449 56.6311 37.8595 56.7483C37.952 57.756 38.8456 58.5668 39.7948 58.7998C39.9718 58.8437 40.1485 58.8699 40.3245 58.8824C41.1784 59.3016 42.1969 59.2534 43.0685 58.8692C43.3256 59.1956 43.6598 59.462 44.0497 59.6527C44.2077 59.7305 44.3746 59.795 44.5489 59.847C45.7795 60.2114 47.0417 59.7172 48.1183 59.1405C48.1527 59.122 48.2164 59.099 48.2727 59.0735C48.4212 59.2395 48.6922 59.4041 48.8334 59.485C49.3127 59.7601 49.8984 59.8881 50.4484 59.8518C51.0936 59.809 51.6626 59.5955 52.1899 59.2925C52.2668 59.3057 52.3444 59.3131 52.4219 59.3173C52.9176 59.3434 53.3593 59.1865 53.7569 58.9385C54.0195 58.9734 54.2887 58.9699 54.5614 58.9222C55.1621 59.0749 55.7468 58.8318 56.2167 58.4462C56.4251 58.2749 56.6007 58.0741 56.7892 57.8823C56.9851 57.6832 57.1339 57.6368 57.3624 57.5029C57.9037 57.1866 57.9687 56.3838 57.7343 55.8036C57.7788 55.7021 57.8045 55.5888 57.8045 55.4632C57.8028 54.3672 57.2981 53.3622 56.6786 52.4852C56.4017 52.0943 56.1012 51.7117 55.7715 51.3647C55.5064 51.0861 55.1339 50.6338 54.7416 50.5208C54.7176 50.5034 54.6925 50.486 54.6678 50.4696C54.744 50.2032 54.7885 49.9322 54.7697 49.6553C54.7496 49.3711 54.6581 49.1016 54.511 48.8718C55.0042 47.9156 55.2125 46.867 55.1134 45.7727C55.5144 45.2029 55.8188 44.5742 55.9757 43.8847C56.0724 43.4583 56.1277 43.0095 56.12 42.5722C56.1169 42.3622 56.04 42.0969 56.0383 41.8796C56.0501 41.9483 56.1391 41.692 56.1739 41.6285C56.5718 40.8889 57.0831 40.3118 57.1684 39.44C57.2181 38.9298 57.0974 38.3663 56.7917 37.9482C56.9875 37.1761 56.9851 36.3472 56.6769 35.6107C56.5941 35.414 56.4995 35.2215 56.3903 35.0388C56.4407 34.885 56.487 34.7297 56.5464 34.5899C56.5694 34.5346 56.5927 34.4785 56.6157 34.4222C56.8397 34.2246 57.048 34.009 57.223 33.7973C57.6111 33.3288 57.9078 32.7916 57.9451 32.1725C57.9631 31.8625 57.8904 31.5658 57.8004 31.2717C57.7607 31.1386 57.7367 30.9907 57.6897 30.8609C57.6633 30.7889 57.5997 30.7154 57.5774 30.6477C57.5722 30.6328 57.568 30.6204 57.5649 30.6104C57.568 30.6005 57.5708 30.5799 57.5708 30.5409C57.5715 30.2442 57.6104 29.9541 57.6122 29.6682C57.8838 29.9427 58.2108 30.1475 58.5826 30.2674C59.3318 30.508 60.1134 30.3989 60.7767 30.0278C61.4904 30.5171 62.2922 30.96 63.1332 31.1378C63.6331 31.2435 64.1336 31.1997 64.6351 31.2651C65.1332 31.3303 65.615 31.5477 66.0838 31.7171C67.128 32.0948 68.1697 32.4824 69.217 32.8503C70.063 33.147 70.9781 33.3825 71.864 33.2156C72.1124 33.599 72.4355 33.9231 72.8494 34.1611C73.1457 34.3305 73.4713 34.4453 73.8077 34.5024C74.1047 34.5528 74.4536 34.533 74.6946 34.7371C74.9301 34.9356 75.0772 35.2313 75.2887 35.4545C75.5242 35.7042 75.815 35.9207 76.1197 36.0763C76.3642 36.2007 76.6136 36.2907 76.8671 36.3496C76.8449 36.9142 76.8233 37.4777 76.8167 38.043C76.8045 39.2712 76.8094 40.4994 76.7931 41.7276C76.7764 42.9516 76.7374 44.1756 76.6731 45.3982C76.6118 46.5455 76.5259 47.6966 76.2525 48.8156C75.3457 52.5291 71.9482 55.1881 68.1451 55.3234C67.0157 55.3642 65.8981 55.2052 64.8184 54.8728C63.7002 54.5283 62.7012 53.8194 61.5548 53.6011C61.255 53.5449 60.9722 53.8466 61.144 54.1367C61.44 54.635 61.7993 54.9391 62.2908 55.239C62.8056 55.5525 63.3784 55.7847 63.9444 55.988C64.9854 56.3615 66.0866 56.5781 67.191 56.6384C68.0334 56.6848 68.8793 56.6269 69.7044 56.4682C69.7624 56.6461 69.8647 56.8187 69.9423 56.9833C69.9541 57.007 69.9927 56.9906 69.9854 56.9659C69.9729 56.9244 69.9649 56.8881 69.9614 56.8584C70.239 57.2204 70.6678 57.4708 71.1082 57.5922C71.4184 57.6783 71.7482 57.7044 72.0678 57.6682C72.1711 57.6567 72.2692 57.6392 72.367 57.618C72.6922 57.9029 73.1085 58.0933 73.5266 58.1881C73.455 58.6247 73.6703 59.1007 74.1701 59.2245C74.3798 59.2768 74.5816 59.2775 74.783 59.2583C74.9458 59.3343 75.1211 59.394 75.3068 59.4344C75.5489 59.4874 75.8379 59.4194 76.0205 59.2444C76.1204 59.3148 76.2139 59.3633 76.3064 59.4749C76.6873 59.9345 77.5082 59.5683 77.5447 59.0369C77.6651 59.0369 77.7864 59.0386 77.9082 59.0428C77.937 59.0561 77.9659 59.0693 77.9955 59.0833C78.5266 59.3302 79.0769 59.546 79.6644 59.3518C79.7725 59.3162 79.8717 59.2709 79.9614 59.2179C80.3753 59.2552 80.7833 59.2559 81.2031 59.1206C81.4511 59.0404 81.6838 58.9131 81.8779 58.7461C82.5256 58.9361 83.2087 59.0222 83.8532 58.7865C84.3357 58.6104 84.7238 58.3328 84.9972 57.9667C85.4153 57.9817 85.8397 57.8805 86.2223 57.6814C86.8765 57.3428 87.335 56.6987 87.6546 56.0533C88.3586 54.6294 88.7746 53.0993 88.9381 51.5217C89.0995 49.9678 88.8696 48.4223 88.7078 46.8774Z" fill="black"/>
<path fill-rule="evenodd" clip-rule="evenodd" d="M68.7023 50.162C68.1471 49.9354 67.6515 49.5573 67.2894 49.0744C67.1635 48.9066 67.1308 48.7291 67.1572 48.567C67.1868 48.3846 67.2946 48.2197 67.4417 48.1088C67.5892 47.9975 67.7739 47.9428 67.952 47.9707C68.1071 47.9947 68.2612 48.0798 68.3836 48.2559L68.409 48.2912C68.6243 48.5827 68.905 48.8219 69.2247 48.976C69.5329 49.1246 69.8776 49.194 70.2344 49.1535C70.9137 49.0768 71.3819 48.7093 71.8796 48.2099C71.9412 48.1471 72.0028 48.0819 72.065 48.016C72.104 47.956 72.1586 47.9177 72.2188 47.8974C72.2859 47.8751 72.3617 47.8762 72.4309 47.9006C72.4981 47.924 72.5579 47.9682 72.5979 48.0272C72.6362 48.0833 72.6577 48.1524 72.6508 48.2322C72.6052 48.7494 72.3349 49.2111 71.9509 49.5737C71.5245 49.9762 70.9593 50.2548 70.4271 50.3524C69.8407 50.4602 69.2435 50.3831 68.7023 50.162ZM70.7036 42.1816C71.3273 42.561 72.2779 43.4457 71.6069 44.3862C70.817 45.2155 69.6796 44.2645 69.1193 43.8345C68.5996 43.5012 68.0156 44.3583 68.4981 44.7475C72.5475 47.7472 74.1909 42.2806 71.0191 41.7356C70.6699 41.6753 70.5402 42.0641 70.7036 42.1816ZM63.4466 38.692C63.5158 37.8359 64.8184 37.6417 64.9482 38.4887C65.0643 39.2475 64.9276 39.9442 64.5861 40.6274C64.2598 41.2802 63.4393 40.9757 63.3774 40.3815C63.2943 39.5847 63.4038 39.2245 63.4466 38.692ZM73.3645 38.3129C73.5464 38.0751 73.8087 37.9126 74.1228 38.0043C75.1047 38.2913 74.8153 39.6858 74.4703 40.3648C74.2831 40.7334 73.6776 40.8268 73.4038 40.5022C72.9576 39.9728 72.744 38.9159 73.3113 38.3945C73.3266 38.3677 73.3436 38.3405 73.3645 38.3129ZM64.5722 34.9468L64.7273 34.9196C65.207 34.8364 65.8035 34.7567 66.1429 35.1427C66.3228 35.3471 66.385 35.7275 66.1429 35.9235C65.7172 36.2681 65.2469 36.1345 64.7367 36.1638C64.3165 36.1879 63.9127 36.2576 63.5078 36.3734C62.6195 36.6272 61.896 37.091 61.1374 37.6002C61.0379 37.6668 60.9363 37.5395 60.9836 37.4464C61.4216 36.5882 62.2703 35.8831 63.1203 35.4534C63.5739 35.224 64.0703 35.0339 64.5722 34.9468ZM72.4696 34.5622L72.5885 34.5865C73.88 34.8567 75.5583 35.3963 76.1701 36.6659C76.1934 36.8452 76.1687 36.8839 76.1485 36.909L76.1419 36.9174C76.1256 36.9386 76.1123 36.9683 76.0344 36.9927C76.0129 36.9875 75.9913 36.9822 75.969 36.9763C75.6887 36.9027 75.4668 36.8016 75.2522 36.6966L75.0191 36.5816C74.7492 36.449 74.4765 36.3214 74.1878 36.2273C73.5715 36.026 72.9374 35.8841 72.2936 35.8084C72.1537 35.7921 72.0195 35.745 71.9134 35.6644C71.8129 35.5877 71.736 35.4817 71.7009 35.3405C71.6556 35.1577 71.6685 35.0196 71.7666 34.8549C71.84 34.7313 71.9454 34.6455 72.0664 34.5963C72.1896 34.5461 72.3301 34.5343 72.4696 34.5622Z" fill="black"/>
<path fill-rule="evenodd" clip-rule="evenodd" d="M77.928 42.5715C77.1697 43.5193 74.201 44.5714 72.6212 43.4293C71.041 42.2869 70.4167 41.4912 70.2056 40.0639C70.183 39.9115 69.9082 39.8104 69.7917 39.9185C69.1409 40.5235 68.7193 41.2941 68.3019 42.0666C67.831 42.938 67.3673 43.8147 66.5113 44.4044C64.9958 45.2172 62.2539 45.333 61.4438 44.9745C59.8918 44.2875 58.6643 42.8187 58.385 40.7969C58.385 40.7969 58.1012 39.9003 57.8525 39.7117C57.6167 39.5328 56.3155 39.3734 56.1729 39.3469C53.6038 38.8699 50.3548 38.5661 48.0668 40.2438C47.7572 40.4311 46.697 41.1348 46.6814 40.9618C46.6703 40.2839 47.4379 38.7502 49.1837 38.0204C51.3423 37.1179 54.551 37.0652 56.4097 37.2644C56.5033 37.2745 56.8219 37.196 56.8445 37.1862C59.6609 35.9664 62.9012 36.2904 65.9148 36.803C66.3468 36.887 70.2122 37.8446 71.7499 37.2644C74.2922 36.2259 77.0028 35.4737 79.7482 35.7698C79.7711 35.7722 80.1176 37.8767 79.8477 38.0204C79.6327 38.1348 79.2671 38.4277 79.1374 38.5877C79.0212 38.7311 78.9482 38.9093 78.9544 39.1558C79.0066 40.5831 78.5997 41.7314 77.928 42.5715ZM67.4751 41.2976C67.7976 40.8314 67.8991 39.7832 67.7642 39.0184C67.696 38.6313 67.5631 38.3234 67.3969 38.17C67.2859 38.0678 67.1597 38.02 67.0219 38.027C66.9464 38.0308 66.8647 38.0525 66.7781 38.0992C65.6056 37.4645 64.1854 37.2361 62.839 37.3017C61.7673 37.3017 61.0024 37.5548 60.4838 37.9489C59.8598 38.4228 59.5788 39.1045 59.5624 39.8435C59.5433 40.7205 59.9033 41.6802 60.4939 42.4393C61.0595 43.1661 61.8327 43.7045 62.672 43.829C63.6244 44.018 64.5951 43.8353 65.439 43.3875C66.3044 42.9282 67.0355 42.1907 67.4751 41.2976ZM76.8737 41.7925C77.417 41.1501 77.7784 40.3146 77.8334 39.4867C77.8835 38.7332 77.6817 37.9869 77.1242 37.37C76.6188 36.9359 75.7256 36.9289 74.7857 37.1706C73.5708 37.483 72.3141 38.1818 71.895 38.6327C71.7962 38.6847 71.7047 38.7747 71.625 38.9682L71.6244 39.0372C71.4974 39.6227 71.5729 40.2173 71.7924 40.7655C72.031 41.3611 72.44 41.9016 72.9384 42.3141C73.6014 42.8606 74.2929 43.0276 74.9405 42.9394C75.6737 42.8397 76.3558 42.4052 76.8737 41.7925Z" fill="white"/>
<path fill-rule="evenodd" clip-rule="evenodd" d="M71.6623 37.0321C74.2369 35.9807 76.9885 35.2226 79.7746 35.5229C80.0049 35.4353 80.2908 35.5093 80.3931 35.8353C81.3854 38.8597 79.1725 38.0186 79.2021 39.1492C79.4341 45.4889 70.9179 46.5713 69.9604 40.1001L69.943 40.1106C68.5652 41.3967 68.2748 43.4897 66.6522 44.6084C63.3781 47.004 58.7371 45.106 58.1412 40.8412L58.128 40.7836C57.928 39.9132 57.6887 39.6974 56.7019 39.7019L56.5461 39.6709C53.9823 39.1652 50.5677 38.7112 48.2063 40.4492C47.6925 40.7481 47.6685 41.5166 47.2345 41.8503C46.759 41.9428 46.4661 41.3705 46.4338 40.9747C46.3586 37.0269 53.4188 36.743 56.5809 37.0816C56.6411 37.0192 56.7701 37.0269 56.8136 37.105C59.6731 35.866 62.895 36.0376 65.9565 36.5586C67.8532 36.9258 69.7266 37.7627 71.6623 37.0321ZM79.5183 36.2517C77.9736 36.1746 76.5447 36.259 75.0282 36.6307C74.2292 36.8236 73.616 37.0673 72.8508 37.3606C68.0797 39.4756 67.5294 35.7164 56.8348 37.1901C56.9732 37.7829 56.9986 38.3698 57.0059 38.927C59.1896 38.8388 58.6755 40.9252 59.4936 42.3905L59.519 42.4348C60.7113 44.5728 63.5249 45.5701 65.7945 44.1519C67.6877 43.0475 67.8724 40.2469 69.7576 39.1356C71.392 39.0714 70.7392 41.2781 71.6285 42.1851C72.8804 43.8562 75.5409 44.0898 77.1106 42.5178C77.847 41.7614 78.2386 40.8011 78.2602 39.7692C78.3012 39.1101 78.1882 38.4402 78.6863 37.9764C79.0355 37.6218 79.656 37.74 79.727 37.2037C79.7722 36.8863 79.6404 36.5425 79.5183 36.2517ZM62.7294 37.1158C64.264 37.0401 65.8877 37.3069 67.2056 38.0598C68.1809 37.2832 68.4198 40.3697 67.7722 41.2624C66.8397 43.1716 64.6682 44.427 62.5774 44.0103C59.3159 43.5371 57.0432 37.1102 62.7294 37.1158ZM67.1117 38.2669L67.0282 38.2547C65.6146 38.0389 61.7659 37.0391 60.2814 38.617C58.8404 41.2345 62.4957 45.6308 66.2992 42.129C67.3576 41.0507 67.768 39.743 67.1117 38.2669ZM71.5913 38.6013C72.3235 37.7341 76.0543 35.9776 77.3548 37.1046C79.7284 39.7661 75.9642 45.1492 72.8115 42.5265C71.7614 41.6498 71.0706 40.2532 71.3729 38.9005L71.3732 38.844C71.3739 38.8235 71.3778 38.828 71.3997 38.8026C71.4386 38.7 71.5089 38.6348 71.5913 38.6013ZM77.3218 40.2145C78.1221 35.8705 74.7767 37.5221 72.0292 38.6812C72.1767 38.8162 72.176 39.0003 72.1336 39.1516C71.8438 42.3745 75.759 44.2007 77.3218 40.2145ZM56.5252 37.293C55.3792 37.6811 47.7993 36.9868 47.0992 40.542C47.8383 39.3438 49.3691 38.8681 50.7454 38.6101C52.6171 38.2592 54.479 38.4622 56.3245 38.8318L56.3628 38.4496C56.4035 38.0441 56.4466 37.665 56.5252 37.293Z" fill="black"/>
</svg>
