<svg width="36" height="37" viewBox="0 0 36 37" fill="none" xmlns="http://www.w3.org/2000/svg">
<path d="M32.9154 26.39H29.0506C27.4418 26.2855 25.9175 25.6181 24.7348 24.5002L24.3001 24.0566C23.228 22.8406 22.5971 21.2861 22.5126 19.6527V15.709C22.5083 15.0262 22.2407 14.3725 21.7674 13.8896C21.2942 13.4067 20.6536 13.1335 19.9843 13.1292H16.1195C14.524 13.0607 13.0001 12.4341 11.8038 11.3546L11.369 10.9109C10.2969 9.69492 9.66604 8.14047 9.58152 6.50708V2.57988C9.58152 1.89565 9.31514 1.23943 8.84106 0.755584C8.36691 0.271811 7.72386 0 7.05331 0H2.52821C1.85773 0 1.21461 0.271811 0.74053 0.755584C0.266383 1.23943 0 1.89565 0 2.57988V7.19725C0 7.88147 0.266383 8.5377 0.74053 9.02147C1.21461 9.50532 1.85773 9.77713 2.52821 9.77713H6.37697C8.00211 9.85297 9.55076 10.5036 10.7571 11.6175L11.1919 12.0612C12.2606 13.2793 12.891 14.8325 12.9794 16.4649V20.4087C12.9836 21.0915 13.2513 21.7452 13.7245 22.2281C14.1977 22.711 14.8384 22.9841 15.5076 22.9885H19.3724C20.9554 23.0896 22.4588 23.7321 23.6399 24.8124L24.0746 25.2561C25.1434 26.4743 25.7737 28.0275 25.8621 29.6599V33.6036C25.8663 34.2865 26.1341 34.9402 26.6073 35.4231C27.0805 35.906 27.7211 36.1791 28.3903 36.1834H32.9315C33.6007 36.1791 34.2414 35.906 34.7146 35.4231C35.1878 34.9402 35.4556 34.2865 35.4598 33.6036V28.9698C35.4555 28.2841 35.1856 27.6279 34.7089 27.1445C34.2322 26.6612 33.5874 26.3899 32.9154 26.39Z" fill="#414042"/>
</svg>
